<?xml version="1.0" standalone="no"?>
<!DOCTYPE svg PUBLIC "-//W3C//DTD SVG 20010904//EN"
 "http://www.w3.org/TR/2001/REC-SVG-20010904/DTD/svg10.dtd">
<svg version="1.0" xmlns="http://www.w3.org/2000/svg"
 width="1600.000000pt" height="1142.000000pt" viewBox="0 0 1600.000000 1142.000000"
 preserveAspectRatio="xMidYMid meet">

<g transform="translate(0.000000,1142.000000) scale(0.100000,-0.100000)"
fill="#000000" stroke="none">
<path d="M0 10366 l0 -1054 53 -8 c28 -4 59 -9 67 -11 8 -1 32 -6 53 -9 20 -3
40 -11 44 -17 4 -6 -2 -8 -15 -5 -12 4 -20 2 -16 -3 3 -5 16 -9 28 -9 13 0 29
-7 37 -16 17 -21 -2 -34 -51 -34 l-35 0 25 -20 c32 -25 58 -25 90 0 14 11 35
20 48 20 20 0 21 2 11 21 -6 12 -24 26 -40 32 -32 13 -39 27 -11 27 45 -1 94
-81 69 -113 -27 -33 -202 -72 -300 -66 l-57 4 0 -3698 c0 -2463 3 -3696 10
-3692 5 3 10 17 10 31 0 17 16 41 51 75 39 38 50 55 47 73 -4 19 1 25 29 35
18 7 47 10 62 6 20 -4 32 -2 38 7 13 22 143 65 143 48 0 -4 -9 -28 -20 -54
-20 -44 -28 -51 -58 -47 -16 2 -16 -16 1 -22 8 -4 7 -6 -3 -6 -8 -1 -20 -11
-25 -23 -6 -13 -21 -25 -35 -26 -14 -2 -31 -9 -38 -15 -11 -8 -8 -13 12 -24
14 -8 26 -18 26 -24 0 -5 14 -23 30 -39 35 -34 37 -46 10 -53 -23 -6 -27 -35
-5 -43 8 -4 15 -18 15 -34 0 -16 7 -30 16 -34 12 -5 15 -15 11 -39 -2 -17 0
-40 5 -49 5 -12 5 -18 -2 -18 -5 0 -10 -7 -10 -16 0 -8 5 -12 10 -9 13 8 50
-3 50 -15 0 -5 -12 -8 -28 -7 -22 2 -27 -2 -25 -18 1 -15 -4 -21 -19 -22 -26
-2 -42 -18 -33 -33 5 -8 10 -8 21 1 10 8 14 8 14 0 0 -6 5 -11 10 -11 6 0 22
-7 36 -16 18 -12 22 -20 14 -29 -6 -7 -12 -28 -13 -46 -1 -19 -6 -38 -12 -42
-5 -5 5 -5 23 -2 38 8 42 -6 8 -29 -21 -13 -28 -14 -50 -2 -23 12 -24 15 -11
26 8 7 14 27 14 44 l-2 31 -6 -35 c-6 -35 -7 -35 -21 -12 -16 23 -32 30 -28
11 2 -6 -3 -14 -10 -16 -7 -3 -12 4 -12 16 0 12 -6 21 -14 21 -8 0 -24 9 -37
21 -13 11 -19 18 -13 15 8 -4 11 3 10 19 -1 28 -6 31 -23 14 -8 -8 -20 -7 -44
5 -31 15 -32 15 -53 -9 -25 -29 -33 -31 -58 -8 -23 21 -23 3 0 -28 16 -20 18
-34 12 -89 -4 -41 -3 -70 4 -78 7 -10 6 -16 -7 -23 -17 -10 -24 -39 -9 -39 4
0 7 -11 7 -25 0 -14 -6 -25 -12 -25 -7 0 -13 -11 -13 -25 0 -14 5 -25 11 -25
6 0 9 -6 6 -14 -4 -9 5 -19 24 -26 16 -7 27 -16 24 -20 -3 -4 7 -10 22 -13 26
-5 73 17 73 34 0 4 12 1 28 -7 15 -7 33 -14 40 -14 7 0 10 -5 7 -10 -4 -6 -15
-8 -24 -5 -10 3 -34 -2 -54 -10 -29 -12 -37 -21 -37 -40 0 -14 -4 -25 -9 -25
-7 0 -57 35 -71 50 -3 3 -13 11 -22 19 -17 13 -18 -9 -18 -418 l0 -431 1738 0
1737 1 -135 67 c-74 37 -172 91 -218 120 -46 29 -88 52 -92 52 -5 0 -13 6 -17
13 -4 6 -51 47 -103 89 -140 112 -294 269 -390 397 -14 18 -44 58 -67 89 -39
53 -213 380 -213 401 0 6 -13 40 -30 76 -16 36 -30 70 -30 75 0 6 -4 18 -10
28 -13 24 -46 202 -66 357 -36 281 13 653 123 930 190 483 536 878 1006 1149
365 210 795 326 1207 326 199 0 292 -12 590 -73 14 -3 81 -26 150 -52 230 -86
230 -86 247 -77 11 6 12 11 4 16 -12 8 -5 52 12 73 5 7 6 13 3 13 -4 0 -2 10
5 21 8 16 8 23 -1 29 -9 6 -7 22 10 66 12 33 23 66 25 74 10 45 83 200 146
306 143 242 331 435 532 546 130 72 327 148 382 148 14 0 27 -52 32 -123 l5
-82 -40 -37 c-42 -39 -47 -51 -87 -218 -10 -41 -29 -109 -42 -150 -14 -41 -31
-102 -38 -135 -7 -33 -23 -98 -34 -145 -42 -172 -61 -257 -71 -325 -6 -38 -18
-97 -26 -130 -9 -32 -13 -71 -10 -86 3 -14 1 -30 -4 -35 -9 -10 -14 -42 -30
-197 -5 -54 -14 -115 -19 -135 -6 -21 -12 -55 -15 -77 -3 -22 -9 -68 -14 -103
-8 -57 -6 -72 20 -145 34 -97 52 -237 36 -273 -6 -13 -14 -24 -17 -24 -4 0
-12 -20 -19 -43 -15 -48 -81 -136 -98 -130 -6 2 -23 -6 -36 -18 -21 -19 -39
-23 -102 -25 -41 -2 -80 -5 -86 -9 -5 -3 -10 -2 -10 2 0 5 -18 8 -40 8 -22 0
-40 -2 -40 -6 0 -4 16 -17 35 -30 36 -25 39 -44 15 -89 -6 -11 -9 -26 -7 -33
2 -7 -2 -20 -11 -29 -14 -17 -13 -18 8 -18 17 0 21 -3 14 -10 -15 -15 -76 -15
-103 -1 -13 8 -37 10 -54 7 -17 -3 -36 -1 -44 5 -10 9 -23 9 -52 -1 -55 -18
-219 -6 -241 18 -8 9 -16 24 -17 32 -6 55 -15 90 -24 85 -5 -4 -8 8 -7 28 2
19 6 33 11 30 4 -2 7 1 7 7 0 8 -9 10 -25 6 -29 -7 -31 0 -7 27 10 12 11 17 3
12 -21 -12 -61 -15 -61 -4 0 5 6 9 14 9 20 0 28 27 10 34 -23 9 -24 8 -18 -11
5 -16 4 -15 -6 1 -9 13 -9 24 -1 43 6 13 11 36 11 50 l0 27 -27 -26 c-28 -26
-57 -26 -59 0 -2 28 -5 32 -18 32 -10 0 -14 10 -14 30 1 16 5 27 11 23 5 -3
13 0 17 7 9 15 2 42 -10 35 -7 -5 -3 39 7 65 4 8 5 19 4 24 -5 22 12 106 20
100 5 -3 9 -1 9 5 0 5 -5 13 -11 16 -6 5 -2 13 11 22 17 12 19 17 9 24 -10 6
-10 9 -2 9 17 0 35 37 40 78 2 19 13 47 25 63 17 23 19 32 10 41 -7 7 -12 16
-12 22 0 6 5 5 12 -2 20 -20 29 -14 22 16 -6 25 -5 26 8 8 14 -17 15 -17 21
-2 4 9 3 15 -1 13 -4 -3 -13 1 -20 9 -12 13 -8 18 12 15 5 -1 6 5 3 13 -4 9 0
22 8 30 8 8 15 23 15 33 0 11 4 23 9 29 18 17 38 119 35 173 -2 31 1 60 8 68
6 7 8 16 5 20 -12 11 -37 -67 -31 -95 4 -22 3 -24 -6 -12 -9 12 -10 11 -5 -7
4 -14 2 -23 -5 -23 -7 0 -5 -6 4 -16 9 -8 16 -20 16 -27 0 -6 -6 -3 -13 8 -15
20 -34 5 -21 -17 5 -7 3 -8 -6 -3 -10 6 -12 1 -7 -21 3 -16 4 -23 0 -15 -3 7
-27 -53 -54 -134 -27 -81 -46 -152 -42 -158 3 -5 2 -7 -4 -4 -22 14 -116 -271
-188 -568 -118 -487 -125 -524 -150 -747 -13 -121 -29 -225 -35 -232 -12 -16
-307 -150 -400 -182 l-65 -23 40 -17 c22 -9 43 -21 47 -27 3 -6 -6 -26 -22
-46 -58 -75 -61 -130 -19 -446 17 -126 51 -406 78 -635 l6 -55 40 3 c160 11
293 37 479 94 l98 30 -6 46 c-8 62 -95 405 -165 657 -74 265 -95 314 -154 359
-37 28 -102 58 -109 50 -3 -3 -8 2 -11 10 -7 18 -8 18 103 76 60 32 89 54 99
75 l14 28 13 -26 c8 -14 32 -88 54 -165 45 -158 85 -254 135 -324 27 -37 35
-58 35 -91 0 -23 12 -83 26 -132 65 -230 121 -450 117 -460 -5 -11 -112 -101
-149 -125 -43 -28 -137 -105 -179 -146 -48 -47 -70 -103 -81 -201 l-7 -63 982
0 c539 0 981 3 981 8 0 4 -11 17 -24 30 -22 20 -24 30 -24 107 1 83 1 85 19
68 10 -10 28 -26 38 -37 29 -27 61 -101 61 -141 l0 -35 215 0 c118 0 215 3
215 8 0 4 -6 41 -14 82 -17 88 -35 335 -38 535 l-3 140 -33 -17 c-47 -23 -71
-11 -104 53 -28 53 -31 86 -13 146 7 23 -14 35 -70 38 -43 2 -65 -12 -81 -52
-14 -33 -16 -34 -33 -19 -19 17 -35 64 -46 133 -7 44 -27 69 -60 75 -27 4 -31
56 -10 113 20 50 14 68 -20 59 -31 -8 -35 3 -45 99 -10 94 -13 107 -23 124 -4
7 -3 21 3 32 5 11 10 31 10 45 0 14 4 27 9 30 5 3 11 15 14 26 4 17 0 20 -30
20 -22 0 -32 -4 -28 -11 4 -6 -2 -13 -14 -16 -12 -3 -21 -12 -21 -19 0 -12 -4
-12 -20 -2 -17 11 -22 9 -37 -12 -27 -37 -49 -54 -84 -66 -20 -7 -59 -75 -59
-103 0 -28 -18 -27 -29 2 -9 21 -9 21 -17 2 -4 -11 -10 -22 -14 -25 -33 -26
-65 -124 -75 -225 -2 -16 -4 -33 -4 -37 -2 -15 -47 -8 -62 10 -12 14 -13 23
-5 42 8 17 7 25 -2 28 -6 2 -12 10 -12 18 0 7 -17 24 -37 37 -31 20 -43 22
-66 14 -31 -10 -50 -1 -27 13 8 6 10 10 5 10 -6 0 -17 -6 -23 -12 -10 -10 -15
-10 -21 1 -5 8 -7 21 -4 28 3 8 0 25 -7 37 l-12 24 -46 -44 c-25 -24 -48 -41
-51 -38 -3 3 0 8 7 13 8 5 6 12 -9 24 -11 10 -24 15 -29 12 -6 -4 -10 -1 -10
4 0 6 -7 11 -15 11 -8 0 -15 9 -15 19 0 10 -6 21 -14 24 -14 6 -46 -21 -46
-39 0 -5 -9 -15 -20 -22 -12 -7 -18 -17 -15 -22 14 -23 -52 1 -67 24 -5 8 -11
7 -20 -2 -17 -17 -35 -15 -58 8 -12 12 -20 15 -20 8 0 -7 -5 -5 -11 5 -7 12
-23 17 -54 17 -41 0 -43 1 -40 28 4 33 -15 82 -32 82 -7 0 -13 -5 -13 -10 0
-6 -11 -3 -25 7 -13 10 -25 28 -25 39 0 19 -19 36 -43 38 -5 1 -14 9 -21 19
-7 9 -21 17 -30 17 -9 0 -16 6 -16 14 0 8 -10 16 -22 18 -15 2 -22 9 -22 21 1
9 -4 17 -11 17 -8 0 -17 9 -20 20 -4 11 -10 18 -15 15 -11 -7 -40 22 -40 40 0
7 -7 15 -15 19 -8 3 -15 13 -15 21 0 9 -4 14 -9 11 -11 -7 -21 18 -21 55 0 16
-4 29 -10 29 -5 0 -10 8 -10 18 0 9 -9 32 -20 50 -13 21 -16 32 -7 32 6 0 23
24 37 52 52 108 160 178 340 220 89 20 93 20 197 3 112 -18 198 -48 188 -65
-3 -5 -1 -10 4 -10 6 0 11 8 11 18 1 15 2 14 12 -3 6 -11 17 -23 24 -28 7 -4
11 -14 8 -21 -3 -8 9 -22 30 -34 19 -11 43 -33 53 -49 9 -15 22 -31 27 -34 5
-4 5 -12 1 -19 -4 -7 -2 -10 6 -9 8 1 32 -2 54 -6 22 -5 45 -10 50 -11 24 -3
55 -17 55 -23 0 -4 6 -8 13 -9 6 0 30 -5 52 -11 22 -5 112 -9 200 -9 182 1
294 -18 319 -54 14 -20 16 -20 94 25 122 71 169 85 273 86 64 1 99 -4 121 -15
30 -16 67 -18 196 -15 77 2 87 11 175 160 71 118 194 245 294 302 35 20 106
82 183 159 222 224 448 369 717 460 247 83 450 105 697 76 76 -9 148 -16 158
-16 11 0 66 45 126 103 120 115 148 129 267 132 44 1 93 10 133 25 55 20 71
22 134 14 61 -8 74 -13 92 -37 20 -28 21 -39 21 -340 l0 -311 25 -7 c14 -4 73
-7 131 -8 l105 -1 16 34 c22 46 36 131 43 256 6 119 17 357 18 380 1 46 -26
392 -34 429 -5 24 -7 51 -4 60 2 9 -2 57 -11 106 -8 50 -19 122 -25 160 -11
77 -42 229 -64 315 -8 30 -24 98 -36 150 -11 52 -32 130 -46 172 -25 81 -18
72 -139 162 -24 18 -25 23 -19 75 4 31 11 64 17 74 6 12 6 23 -2 32 -6 7 -8
29 -4 52 5 33 2 44 -17 66 -25 28 -116 67 -157 67 -13 0 -37 7 -53 16 -17 8
-65 21 -107 29 -100 17 -153 -2 -163 -59 -2 -11 -10 -21 -18 -24 -10 -3 -12 1
-8 19 3 12 2 28 -4 35 -7 8 -6 15 2 20 8 5 9 3 4 -6 -5 -8 -4 -11 3 -6 6 4 9
13 5 22 -4 12 -8 12 -21 2 -13 -11 -14 -10 -7 12 16 51 50 90 87 102 29 8 126
6 435 -11 219 -12 399 -24 401 -26 6 -6 -87 -248 -109 -284 -24 -39 -54 -51
-132 -51 l-62 0 82 -40 c198 -94 385 -248 485 -399 21 -31 42 -61 47 -67 6 -7
8 -14 5 -16 -2 -3 5 -13 16 -23 11 -10 20 -27 20 -37 0 -10 8 -31 17 -45 10
-15 13 -24 6 -20 -7 5 -9 0 -6 -13 3 -11 9 -23 14 -26 5 -3 9 -30 9 -60 0 -43
3 -54 16 -54 10 0 14 -6 11 -14 -3 -8 -1 -32 5 -52 5 -21 6 -40 2 -41 -5 -2
-8 -22 -7 -45 0 -24 -3 -49 -9 -55 -7 -9 -7 -13 1 -13 6 0 11 -10 11 -22 0
-17 -3 -19 -9 -9 -14 21 -20 -1 -17 -60 2 -33 -1 -57 -8 -61 -7 -5 -4 -8 8 -8
19 0 18 -1 -2 -23 -12 -13 -24 -42 -27 -65 -3 -23 -12 -73 -20 -112 -10 -46
-12 -78 -6 -94 6 -13 6 -27 1 -32 -10 -10 7 -103 23 -122 8 -10 7 -16 -4 -23
-10 -6 -11 -9 -1 -9 7 0 11 -4 7 -9 -3 -5 -1 -12 4 -16 6 -3 8 -12 5 -19 -7
-18 22 -39 46 -33 11 3 17 1 14 -4 -3 -6 0 -16 6 -24 6 -8 9 -19 5 -24 -3 -6
3 -19 15 -31 24 -24 25 -30 5 -30 -17 0 -20 -11 -6 -26 5 -5 11 -20 13 -34 l5
-25 11 25 c11 25 11 24 13 -10 1 -19 1 -41 0 -47 -1 -8 5 -10 15 -6 12 4 15 2
12 -8 -3 -8 -12 -13 -22 -11 -25 5 -19 -17 8 -24 13 -3 23 -11 23 -17 -1 -37
4 -49 17 -44 10 4 13 1 9 -9 -3 -8 -12 -13 -20 -10 -11 5 -13 1 -7 -17 9 -30
11 -32 29 -17 10 8 15 9 15 1 0 -6 -5 -11 -11 -11 -5 0 -7 -5 -3 -12 4 -6 8
-25 9 -40 1 -21 -2 -27 -12 -24 -10 4 -11 1 -3 -14 13 -24 13 -40 0 -40 -5 0
-10 7 -10 15 0 8 -9 15 -20 15 -13 0 -18 -5 -14 -15 4 -8 1 -15 -5 -15 -7 0
-9 -11 -6 -27 5 -27 5 -27 -6 -6 -17 32 -35 29 -48 -7 -5 -17 -14 -30 -18 -29
-18 4 -93 -35 -93 -48 0 -7 -7 -13 -15 -13 -8 0 -15 -5 -15 -11 0 -5 -22 -19
-50 -31 -27 -11 -50 -24 -50 -28 0 -4 -18 -13 -40 -20 -22 -7 -40 -18 -40 -24
0 -15 25 -84 33 -92 12 -12 8 -36 -5 -31 -7 2 -21 -3 -31 -11 -16 -14 -16 -17
-1 -33 11 -12 13 -27 9 -53 -4 -20 -11 -36 -15 -36 -12 0 -18 -44 -9 -68 9
-24 0 -29 -19 -10 -9 9 -12 8 -12 -5 0 -10 -7 -20 -15 -23 -8 -4 -15 -14 -15
-25 0 -23 -31 -40 -76 -42 -19 -1 -34 -5 -34 -8 0 -8 -61 -4 -82 6 -11 4 -18
3 -18 -4 0 -6 -4 -11 -10 -11 -5 0 -10 7 -10 15 0 8 -7 15 -15 15 -8 0 -15 5
-15 10 0 6 5 10 11 10 5 0 8 4 5 8 -12 19 84 99 105 87 6 -4 15 -2 19 6 5 7
30 15 57 18 l48 6 1 46 c2 68 -30 118 -87 136 -30 10 -70 37 -119 83 -72 66
-76 69 -117 64 -26 -3 -56 1 -80 11 -66 28 -120 36 -148 23 -20 -9 -25 -18
-25 -49 0 -47 -13 -55 -101 -61 -87 -7 -142 -37 -168 -92 -40 -86 -76 -178
-144 -361 -114 -312 -127 -349 -127 -372 0 -12 16 -38 35 -57 19 -20 35 -41
36 -48 0 -7 3 -22 5 -33 7 -29 7 -37 -1 -67 -6 -24 -3 -30 25 -45 20 -12 42
-39 61 -76 85 -166 197 -249 357 -262 66 -6 82 -11 82 -24 0 -82 12 -379 21
-513 13 -188 10 -220 -45 -456 l-33 -142 2884 0 2883 0 0 159 0 160 -30 45
c-48 70 -135 259 -178 386 -191 559 -133 1224 159 1814 l49 100 0 382 c0 345
-2 382 -16 388 -15 6 -15 4 -3 -11 12 -15 12 -16 -4 -10 -10 4 -22 7 -27 7 -5
0 -12 9 -15 20 -4 11 -17 33 -30 48 -40 48 -18 115 30 89 17 -9 18 -8 7 5 -15
19 -6 49 14 41 8 -3 14 0 14 6 0 6 7 8 15 5 13 -5 15 112 15 965 l0 971 -27
-5 c-16 -3 -80 -12 -143 -21 -183 -25 -330 -52 -421 -78 -46 -13 -129 -36
-184 -51 -196 -54 -329 -99 -540 -183 -27 -11 -130 -58 -228 -106 -98 -47
-183 -84 -188 -81 -5 4 -9 0 -9 -8 0 -15 -120 -84 -120 -70 0 4 -7 -1 -15 -11
-8 -11 -17 -17 -20 -15 -8 9 35 50 46 44 5 -4 9 -2 9 2 0 5 20 19 46 31 25 12
43 26 41 30 -3 4 1 13 9 20 8 7 14 10 14 7 0 -13 34 14 36 29 3 20 2 20 -42 1
-21 -9 -32 -10 -28 -3 5 7 0 9 -13 6 -11 -3 -27 -1 -36 4 -11 6 -27 4 -46 -7
-39 -20 -51 -19 -52 3 0 14 -2 13 -11 -4 -9 -20 -58 -32 -58 -14 0 4 -15 7
-34 6 -25 -1 -32 2 -28 13 4 9 1 12 -7 7 -6 -4 -18 -3 -26 4 -9 8 -20 8 -32 2
-10 -5 -29 -8 -43 -7 -14 2 -33 4 -42 4 -10 1 -18 9 -18 18 0 15 -2 14 -15 -3
-10 -13 -17 -15 -22 -8 -5 6 -17 9 -28 7 -51 -10 -85 -11 -90 -2 -4 5 -19 2
-37 -7 -17 -9 -39 -14 -49 -11 -10 3 -20 0 -23 -7 -2 -6 -5 -2 -6 9 0 17 -2
18 -13 5 -23 -29 -91 -8 -107 33 -7 17 -9 18 -9 5 -1 -20 -31 -25 -31 -5 0 9
-2 9 -8 0 -4 -7 -18 -11 -30 -8 -12 2 -24 -1 -27 -6 -4 -5 -10 -7 -14 -4 -5 2
-28 7 -52 10 -23 3 -47 11 -51 18 -6 9 -8 9 -8 -2 0 -10 -10 -12 -37 -8 -25 4
-44 1 -56 -8 -11 -7 -24 -12 -30 -9 -7 2 -34 6 -62 9 -73 7 -75 7 -75 19 0 6
-5 4 -10 -4 -5 -8 -10 -10 -10 -5 0 10 -20 12 -147 17 -33 2 -59 6 -57 10 2 3
-24 9 -59 13 -34 4 -88 14 -120 22 -32 8 -71 11 -87 8 -21 -5 -32 -2 -36 8 -3
10 -16 13 -42 9 -20 -2 -77 -3 -126 -2 -70 1 -93 5 -104 18 -7 9 -10 11 -6 3
5 -10 -2 -12 -37 -8 -51 5 -113 30 -102 41 4 4 -1 4 -12 0 -15 -6 -17 -4 -12
12 5 13 0 11 -18 -9 -14 -15 -25 -24 -25 -18 0 5 4 13 10 16 5 3 10 11 10 17
0 6 -7 5 -17 -4 -21 -18 -65 -17 -113 4 -19 8 -37 11 -38 6 -2 -4 -9 -5 -15
-1 -7 4 -16 8 -22 8 -5 0 -9 8 -9 18 2 14 -1 15 -12 6 -8 -6 -21 -8 -31 -4
-34 15 -47 14 -61 -6 -7 -10 -17 -19 -23 -19 -10 0 -8 28 4 47 5 7 1 9 -13 6
-11 -3 -44 4 -73 16 -30 12 -63 23 -75 24 -11 0 -19 4 -17 7 6 10 -29 27 -50
24 -11 -2 -23 2 -27 9 -6 9 -8 9 -8 -1 0 -10 -3 -10 -15 2 -9 9 -12 22 -8 33
6 16 5 16 -10 5 -14 -12 -17 -10 -23 13 -3 14 -4 29 0 32 3 4 6 -2 6 -12 0
-16 2 -16 19 3 10 12 21 19 25 15 3 -3 6 0 6 8 0 11 2 11 10 -1 7 -12 10 -12
10 -1 0 8 6 11 16 7 9 -4 23 -1 30 5 7 6 35 11 61 11 26 1 53 5 60 10 7 5 14
5 18 -2 5 -8 11 -7 23 2 13 11 14 11 7 -2 -7 -12 -6 -13 7 -3 8 7 17 11 20 8
3 -3 121 -7 264 -10 142 -3 279 -8 304 -11 25 -3 187 -7 360 -9 371 -5 637
-14 664 -24 10 -4 42 -4 70 1 45 7 160 8 361 4 33 -1 105 2 160 5 55 3 105 3
110 -1 8 -6 180 -6 310 -1 11 1 123 1 249 2 127 0 232 2 235 3 3 2 60 7 126
10 66 4 129 9 140 12 11 2 61 6 110 8 50 3 153 14 230 25 77 11 183 25 235 30
84 9 283 33 380 45 19 3 52 5 73 5 l37 1 0 490 c0 460 -1 490 -17 490 -10 0
-25 11 -34 23 -19 26 -41 117 -28 117 5 0 6 14 2 32 -4 22 -3 29 5 24 7 -4 12
-14 12 -22 0 -8 5 -14 10 -14 6 0 10 -9 10 -20 0 -13 5 -18 15 -14 10 4 12 15
9 34 -4 15 -1 31 5 34 7 5 11 64 11 177 0 113 -3 168 -10 164 -6 -4 -7 -11 -4
-17 5 -8 1 -9 -10 -5 -13 5 -18 0 -23 -23 -5 -28 -23 -43 -23 -20 0 6 -11 8
-25 4 -15 -4 -25 -2 -25 5 0 6 10 11 23 12 19 0 19 2 -7 11 -21 8 -25 13 -15
19 10 6 6 9 -13 9 -21 0 -28 5 -28 20 0 11 5 20 10 20 6 0 10 5 10 10 0 6 -8
10 -17 10 -9 0 -13 3 -10 7 4 3 -3 13 -14 21 -16 11 -20 21 -15 42 4 22 1 29
-15 33 -11 3 -25 19 -32 36 -6 17 -15 31 -18 31 -4 0 -6 11 -5 24 2 17 -3 26
-17 30 -13 3 -18 10 -14 20 4 10 1 16 -8 16 -7 0 -25 24 -39 53 -14 28 -43 72
-65 97 -23 25 -41 48 -41 51 0 4 -27 42 -60 84 -34 43 -59 84 -56 91 3 7 0 14
-7 17 -7 2 -3 12 11 27 12 13 22 27 22 31 0 4 10 9 23 13 21 6 21 7 -16 41
-21 19 -43 32 -49 29 -6 -4 -16 0 -22 8 -6 9 -20 17 -31 20 -12 2 -19 11 -17
20 3 18 -59 32 -70 15 -3 -5 -5 2 -5 16 1 15 5 27 10 27 4 0 7 5 7 11 0 5 -5
7 -10 4 -10 -6 -35 42 -31 59 1 5 -5 6 -14 3 -8 -4 -15 -2 -15 4 0 6 -7 8 -15
5 -9 -3 -18 1 -21 9 -4 8 -14 15 -24 15 -11 0 -21 4 -24 9 -3 4 -20 11 -37 15
-50 10 -30 31 34 33 30 1 82 13 114 26 54 21 77 43 112 104 3 7 23 14 44 15
20 2 37 5 37 8 0 3 8 6 18 7 9 1 43 4 75 6 32 3 64 10 70 16 21 21 75 13 101
-15 27 -30 29 -80 7 -163 -7 -24 -9 -58 -5 -74 5 -25 3 -29 -10 -24 -24 10
-31 -14 -9 -32 11 -9 22 -31 26 -48 6 -29 4 -31 -29 -37 -45 -9 -35 -26 11
-19 19 3 35 2 35 -3 0 -16 -31 -54 -44 -54 -18 0 -66 -24 -66 -32 0 -5 -7 -8
-15 -8 -9 0 -15 -9 -15 -24 0 -40 11 -56 37 -56 16 0 22 -4 17 -12 -5 -8 -2
-9 9 -5 21 8 47 -1 47 -17 1 -21 40 -58 55 -52 9 3 14 2 11 -3 -3 -5 1 -12 10
-15 9 -4 14 -9 11 -13 -4 -3 -2 -14 3 -24 7 -12 19 -16 40 -14 31 4 38 -7 21
-34 -7 -11 -4 -18 12 -25 11 -6 24 -25 29 -42 4 -17 17 -39 28 -49 11 -10 21
-32 21 -49 2 -30 2 -30 6 -3 5 33 33 37 33 5 -1 -34 -32 -70 -53 -62 -10 4
-16 13 -13 20 6 16 -3 18 -23 5 -16 -10 -6 -31 15 -31 19 0 18 -16 -3 -24 -14
-6 -14 -9 5 -26 17 -16 20 -27 15 -53 -5 -26 -3 -30 8 -19 33 31 46 -8 15 -47
-9 -12 -7 -13 8 -8 10 4 25 2 32 -4 11 -9 14 -8 14 4 0 8 -6 18 -12 20 -10 4
-10 6 -1 6 10 1 13 428 13 2042 l0 2040 -37 -3 -38 -3 -12 -120 c-6 -66 -21
-217 -33 -335 -11 -118 -48 -447 -80 -730 -82 -705 -95 -813 -136 -1135 -19
-154 -37 -307 -39 -339 -2 -33 -9 -62 -15 -66 -6 -4 -118 -12 -248 -19 -226
-11 -341 -23 -407 -41 -16 -4 -66 -15 -110 -25 -44 -10 -92 -24 -107 -31 -14
-8 -40 -14 -58 -14 -17 0 -40 -5 -50 -10 -10 -6 -30 -11 -44 -12 -14 -1 -28
-8 -30 -15 -3 -7 1 -10 10 -6 9 3 14 -1 14 -15 0 -44 73 -22 93 29 4 11 6 10
6 -3 1 -9 10 -20 21 -23 11 -3 20 -11 20 -17 0 -14 116 -128 130 -128 17 0 60
-51 60 -70 0 -16 -3 -17 -42 -3 -72 24 -98 37 -98 50 0 17 -60 60 -92 65 -16
3 -28 2 -28 -2 0 -13 55 -83 113 -145 31 -33 57 -63 57 -67 0 -5 9 -8 20 -8
11 0 20 -6 21 -12 0 -7 14 -24 32 -38 17 -14 28 -18 23 -10 -4 8 4 3 18 -12
14 -16 33 -28 43 -28 14 0 15 -2 4 -9 -18 -12 3 -24 27 -17 12 4 26 -1 37 -14
10 -11 23 -20 30 -20 15 0 55 -42 55 -58 0 -7 13 -12 28 -12 15 0 34 -6 41
-12 11 -11 12 -9 6 9 -5 18 -3 22 9 17 9 -3 16 -15 16 -26 0 -13 5 -18 14 -15
8 3 20 -1 26 -9 7 -8 10 -14 7 -14 -3 0 8 -15 24 -32 17 -18 37 -45 45 -60 8
-16 19 -28 23 -28 5 0 20 -17 32 -37 13 -21 31 -45 41 -54 10 -9 18 -23 18
-31 0 -8 11 -25 25 -38 15 -14 28 -43 35 -76 6 -30 16 -54 22 -54 5 0 8 -7 4
-15 -3 -9 0 -15 10 -15 9 0 14 -8 13 -17 -3 -37 1 -53 16 -53 8 0 15 7 15 15
0 8 -7 15 -16 15 -8 0 -12 5 -9 10 4 6 10 8 15 5 4 -3 10 1 13 7 3 7 5 4 4 -7
-1 -26 32 -95 49 -102 9 -3 11 -15 8 -33 -5 -23 -2 -28 20 -34 26 -6 28 -12
30 -83 1 -18 7 -38 13 -44 6 -6 9 -18 6 -25 -3 -8 1 -14 10 -14 16 0 29 -23
23 -42 -16 -49 -16 -67 -1 -62 17 7 20 -7 4 -23 -7 -7 -5 -15 6 -27 9 -9 12
-16 5 -16 -21 0 -42 -29 -35 -50 4 -12 2 -27 -5 -34 -6 -8 -9 -20 -8 -27 2 -9
-4 -13 -15 -11 -16 3 -17 0 -7 -18 6 -11 8 -30 5 -40 -7 -22 -41 -45 -47 -31
-2 5 -28 0 -58 -10 -73 -23 -106 -23 -130 1 -25 25 -25 25 1 61 16 23 18 33 9
44 -9 10 -7 21 6 47 14 27 17 63 19 188 0 85 -2 162 -6 170 -37 76 -41 93 -28
101 11 7 10 9 -4 9 -10 0 -15 4 -12 10 3 6 2 10 -3 10 -5 0 -15 15 -22 33 -8
17 -19 39 -25 47 -7 8 -16 26 -20 40 -4 14 -11 27 -15 30 -10 7 -49 70 -56 93
-12 33 -29 11 -25 -33 3 -52 17 -90 31 -90 5 0 10 -6 10 -14 0 -7 10 -26 22
-41 34 -44 69 -194 75 -325 6 -118 -9 -254 -29 -266 -7 -4 -7 -9 0 -13 7 -4 5
-15 -4 -31 -14 -24 -15 -24 -11 -2 3 12 1 19 -4 16 -23 -14 -53 15 -122 119
-361 545 -642 998 -679 1096 -16 42 -38 105 -50 141 -28 90 -88 234 -99 238
-5 2 -9 10 -9 18 0 8 -4 14 -8 14 -14 0 -33 48 -22 55 17 10 11 41 -14 86 -33
58 -284 319 -300 313 -13 -5 -40 47 -72 142 -18 54 -97 179 -118 187 -7 3 -30
56 -51 119 -50 150 -98 253 -133 287 -16 15 -44 51 -63 81 -40 67 -73 104
-121 135 -31 21 -45 24 -83 19 -50 -7 -49 -9 -45 67 1 28 -4 41 -21 53 -12 8
-26 13 -31 10 -5 -3 -15 -1 -23 6 -15 12 -153 218 -175 260 -15 28 -213 354
-271 446 -61 96 -55 126 51 238 25 26 47 52 48 57 2 5 12 9 23 9 10 0 33 16
51 36 35 39 148 128 367 289 l136 100 -743 3 -744 2 -141 -76 c-181 -98 -292
-161 -342 -194 -22 -15 -56 -32 -75 -40 -61 -24 -272 -173 -341 -240 -36 -36
-105 -99 -155 -140 -119 -100 -325 -301 -376 -367 -22 -29 -63 -69 -89 -89
-27 -20 -61 -55 -75 -79 -14 -24 -31 -49 -39 -55 -8 -7 -52 -14 -97 -16 -46
-2 -159 -11 -253 -19 -93 -8 -276 -24 -405 -35 -129 -11 -269 -25 -310 -30
-41 -5 -185 -24 -320 -40 -698 -88 -1584 -263 -2275 -452 -212 -58 -317 -68
-365 -36 -62 42 -814 195 -1315 268 -333 49 -492 68 -615 75 -63 4 -128 11
-145 15 -16 5 -84 11 -150 14 -185 9 -248 15 -380 33 -11 1 -80 4 -152 7 -73
3 -138 8 -145 12 -7 4 -35 9 -63 10 -27 1 -57 2 -66 3 -10 0 -29 24 -44 54
-15 28 -33 59 -40 67 -7 8 -27 45 -44 81 -60 124 -120 172 -258 210 -78 22
-141 17 -258 -19 -69 -20 -87 -42 -62 -70 10 -11 15 -26 11 -36 -8 -20 -18
-20 -34 -1 -7 8 -28 17 -49 21 -39 7 -71 29 -71 49 0 7 -23 48 -51 91 -82 125
-85 135 -53 200 20 41 25 62 20 89 -21 110 -368 509 -581 668 l-90 67 -887 0
-888 0 0 -1054z m12268 978 c-4 -21 -44 -48 -52 -36 -8 13 22 52 40 52 9 0 14
-7 12 -16z m432 -38 c0 -18 -57 -76 -74 -76 -7 0 -33 -13 -59 -30 -34 -21 -61
-30 -97 -31 -28 -1 -53 1 -57 4 -14 15 31 45 84 56 31 6 65 18 74 27 18 16
106 62 122 63 4 1 7 -5 7 -13z m-574 -27 c39 -37 20 -54 -164 -151 -41 -21
-76 -38 -78 -38 -11 0 -33 50 -28 64 9 25 57 46 103 46 35 0 43 4 55 29 15 29
62 70 80 71 6 0 20 -10 32 -21z m674 -129 c0 -5 -2 -10 -4 -10 -3 0 -8 5 -11
10 -3 6 -1 10 4 10 6 0 11 -4 11 -10z m-85 -110 c0 -13 -6 -25 -12 -27 -9 -3
-13 6 -13 27 0 21 4 30 13 28 6 -3 12 -15 12 -28z m-95 -70 c0 -10 -18 -33
-40 -50 -23 -18 -53 -44 -69 -59 -15 -14 -67 -51 -114 -81 -48 -30 -87 -57
-87 -61 0 -3 -17 -14 -37 -25 -21 -10 -58 -31 -82 -46 -25 -16 -52 -28 -61
-28 -9 0 -29 -13 -45 -30 -16 -16 -39 -30 -51 -30 -13 0 -40 -11 -60 -25 -38
-26 -69 -32 -79 -15 -10 16 11 45 53 74 22 15 46 41 52 57 16 37 30 37 30 0 0
-17 6 -31 16 -35 24 -9 34 2 34 39 0 31 6 37 61 71 33 21 67 50 75 66 8 15 19
28 24 28 13 0 13 -37 0 -45 -18 -11 -10 -26 13 -23 18 2 22 9 22 35 0 29 6 36
50 60 36 20 64 28 100 28 l50 0 5 40 c4 33 9 41 29 43 13 2 37 12 53 22 35 21
58 17 58 -10z m-160 -24 c0 -8 -4 -17 -9 -21 -12 -7 -24 12 -16 25 9 15 25 12
25 -4z m-678 -226 c-3 -39 -36 -80 -65 -80 -16 0 -18 5 -12 28 20 81 83 124
77 52z m957 -58 c-90 -66 -107 -61 -32 9 40 37 48 41 51 25 2 -10 -6 -25 -19
-34z m-1328 -113 c42 -33 49 -58 22 -84 -13 -13 -26 -15 -62 -10 -52 7 -75 28
-60 54 5 9 13 28 19 44 12 35 33 34 81 -4z m414 -55 c7 -40 3 -49 -20 -41 -15
6 -21 57 -8 70 13 14 21 6 28 -29z m-215 -103 c0 -11 -4 -23 -10 -26 -6 -4
-10 5 -10 19 0 14 5 26 10 26 6 0 10 -9 10 -19z m-8576 -76 c3 -8 12 -15 21
-15 8 0 14 -3 14 -7 -1 -5 0 -11 1 -15 3 -10 4 -12 20 -71 7 -27 19 -51 26
-54 8 -3 19 -24 25 -47 6 -22 14 -43 18 -46 14 -11 49 -67 56 -90 4 -14 11
-27 16 -30 5 -3 10 -16 12 -28 2 -12 6 -25 10 -28 14 -14 6 -25 -13 -19 -14 4
-20 2 -20 -9 0 -8 5 -18 10 -21 11 -7 10 -125 0 -125 -3 0 -6 -18 -7 -40 -1
-25 -12 -57 -30 -87 -30 -49 -50 -56 -45 -16 2 13 -4 26 -17 32 -11 6 -28 25
-38 42 -13 21 -24 29 -39 26 -11 -2 -26 3 -33 10 -7 7 -16 11 -20 8 -23 -13
-81 236 -88 376 -7 122 5 187 43 237 27 34 67 43 78 17z m7690 0 c4 -11 -2
-15 -24 -15 -29 0 -45 12 -33 24 12 12 51 6 57 -9z m1226 -80 c21 -26 4 -45
-40 -45 -46 0 -48 5 -18 37 25 27 41 29 58 8z m-195 -125 c39 0 -11 -33 -57
-37 -24 -2 -48 -5 -54 -7 -6 -2 -16 -1 -23 3 -24 15 55 53 94 45 11 -2 29 -4
40 -4z m-1329 -74 c15 -60 14 -60 -176 -73 -395 -26 -893 -68 -1090 -92 -91
-11 -232 -27 -315 -36 -82 -9 -186 -23 -230 -30 -44 -7 -100 -16 -125 -19 -55
-7 -216 -33 -290 -46 -30 -6 -86 -15 -125 -21 -70 -10 -324 -60 -504 -99 -52
-11 -109 -20 -127 -20 -17 0 -49 -7 -70 -16 -20 -9 -105 -31 -188 -49 -83 -18
-225 -52 -316 -74 -91 -22 -187 -44 -215 -47 -27 -4 -75 -14 -105 -24 -30 -10
-84 -21 -120 -25 -36 -4 -96 -16 -135 -26 -38 -10 -81 -19 -95 -19 -14 0 -59
-12 -100 -25 -98 -33 -179 -43 -191 -24 -25 40 8 89 80 118 36 15 61 3 61 -30
0 -32 96 -25 271 22 271 71 293 77 369 103 41 13 149 40 240 60 91 20 212 48
270 62 58 14 128 28 155 31 28 3 68 11 90 19 41 15 319 74 460 99 44 7 143 26
220 40 150 29 168 32 405 64 85 12 196 29 245 37 212 34 291 44 475 64 489 51
672 67 925 80 109 6 201 13 204 15 13 14 41 2 47 -19z m-6846 -217 c0 -6 -6
-9 -12 -6 -7 2 -20 1 -28 -3 -8 -4 -36 -11 -62 -14 -41 -6 -48 -5 -58 14 -11
21 -10 21 59 19 39 -1 74 1 77 4 9 8 24 -1 24 -14z m-711 -127 c23 -33 38 -72
77 -202 15 -52 36 -104 46 -116 44 -50 15 -70 -105 -73 -63 -2 -78 1 -83 14
-9 22 9 38 43 37 61 0 70 43 21 106 -24 32 -39 42 -61 42 -33 0 -73 39 -82 81
-11 50 11 95 58 118 55 27 62 26 86 -7z m11048 -714 c6 -33 -9 -36 -37 -8 -21
21 -19 60 4 89 11 14 17 -1 33 -81z m-4857 -128 c12 -16 18 -30 13 -29 -12 0
-56 59 -44 59 5 0 19 -13 31 -30z m215 -30 c3 -5 2 -10 -4 -10 -5 0 -13 5 -16
10 -3 6 -2 10 4 10 5 0 13 -4 16 -10z m60 -20 c-3 -5 -11 -10 -16 -10 -6 0 -7
5 -4 10 3 6 11 10 16 10 6 0 7 -4 4 -10z m-271 -32 c-3 -5 1 -17 10 -26 8 -10
25 -40 37 -67 12 -28 24 -44 26 -38 3 7 -2 26 -10 42 -11 23 -12 28 -2 25 7
-3 16 -21 20 -40 7 -41 24 -37 23 6 -1 16 -5 27 -10 24 -4 -3 -8 0 -8 5 0 6 5
11 11 11 8 0 7 5 -1 15 -7 9 -10 18 -7 21 3 3 16 -13 30 -36 14 -24 28 -37 31
-31 4 6 3 11 -2 11 -5 0 -12 8 -15 18 -2 9 -8 26 -13 36 -7 19 -7 19 13 0 11
-10 18 -23 15 -29 -3 -5 1 -4 8 2 11 11 10 17 -7 35 -11 13 -23 30 -27 38 -4
8 1 5 12 -7 11 -13 25 -23 30 -23 16 0 23 -31 11 -46 -7 -9 -7 -19 1 -34 6
-12 14 -19 17 -17 2 3 0 14 -6 25 -10 19 -6 32 11 32 5 0 7 -4 4 -9 -3 -4 7
-14 22 -20 25 -12 26 -12 11 6 -27 30 -31 43 -16 43 8 0 17 -9 20 -20 3 -11
13 -20 24 -20 11 0 14 3 7 8 -17 11 -36 52 -24 52 5 0 10 -6 10 -12 1 -9 4 -8
13 2 15 19 56 14 64 -7 3 -8 0 -19 -8 -25 -10 -7 -9 -8 6 -4 17 5 21 1 23 -19
1 -14 11 -35 22 -47 11 -12 20 -26 20 -30 0 -5 6 -6 13 -2 6 4 9 4 5 0 -4 -5
2 -24 12 -43 10 -19 16 -42 13 -52 -3 -11 -2 -12 4 -3 7 9 15 4 31 -18 12 -16
22 -36 22 -44 0 -8 5 -18 10 -21 19 -12 42 -66 32 -78 -11 -14 -10 -97 1 -115
5 -7 12 -10 17 -7 4 3 10 -2 14 -10 3 -8 1 -15 -5 -15 -6 0 -8 -4 -4 -9 3 -5
-1 -16 -9 -24 -9 -9 -11 -19 -5 -28 13 -21 11 -67 -3 -72 -10 -4 -10 -8 1 -15
9 -7 10 -12 2 -16 -6 -4 -11 -12 -11 -17 0 -6 5 -7 10 -4 6 3 10 1 10 -4 0 -6
-4 -11 -10 -11 -5 0 -10 -16 -10 -36 0 -26 4 -35 14 -31 11 4 11 -1 2 -26 -6
-18 -14 -37 -18 -43 -5 -7 0 -14 12 -17 11 -3 20 -1 20 4 0 5 -4 9 -10 9 -5 0
-6 8 -3 17 6 15 7 15 14 -3 12 -31 10 -40 -13 -53 -13 -6 -15 -9 -5 -7 9 3 17
1 17 -4 0 -6 -6 -10 -12 -10 -9 0 -8 -4 2 -10 13 -8 12 -10 -2 -10 -10 0 -18
-4 -18 -10 0 -5 6 -10 14 -10 21 0 26 -22 9 -41 -12 -14 -12 -19 1 -32 8 -8
12 -17 9 -20 -3 -4 -2 -14 2 -24 10 -25 12 -64 3 -69 -11 -7 8 -51 33 -77 l22
-22 -6 23 c-3 15 -1 22 9 22 9 0 14 -11 14 -30 0 -16 5 -30 10 -30 6 0 8 -12
5 -27 -4 -22 -1 -20 15 12 11 22 20 35 20 28 0 -6 6 -18 13 -25 7 -7 18 -24
25 -38 l12 -25 -5 25 c-5 22 -4 23 5 7 7 -10 9 -25 5 -34 -3 -9 -1 -19 4 -23
6 -3 13 -44 16 -90 6 -95 9 -118 19 -140 3 -8 5 -29 2 -47 -2 -18 1 -34 6 -35
4 -2 10 -30 12 -64 2 -33 9 -78 14 -100 13 -50 14 -166 1 -159 -5 4 -9 -13 -9
-39 0 -24 -5 -46 -11 -48 -17 -6 -18 -171 -1 -190 9 -11 12 -44 10 -104 -2
-80 1 -93 23 -129 52 -81 54 -158 9 -243 -11 -20 -20 -42 -20 -49 0 -7 -5 -13
-11 -13 -6 0 -8 -7 -5 -16 11 -29 -7 -37 -19 -8 -12 29 -12 29 -9 -11 2 -22 4
-40 5 -40 1 0 3 -13 5 -28 2 -24 1 -27 -12 -17 -11 10 -14 9 -14 -4 0 -9 6
-16 13 -16 6 0 13 -12 13 -26 1 -14 -1 -23 -4 -20 -7 8 -33 -44 -37 -74 -1
-13 -8 -26 -14 -28 -6 -2 -11 -10 -11 -19 0 -8 -7 -30 -16 -49 -13 -26 -21
-33 -35 -29 -24 8 -24 -4 -1 -21 16 -13 16 -14 -3 -20 -11 -3 -31 -23 -45 -45
-13 -21 -30 -39 -37 -39 -17 0 -16 6 5 51 14 31 23 39 47 40 17 1 23 3 13 6
-20 5 -20 8 -12 41 4 12 12 22 19 22 8 0 10 9 8 24 -5 24 22 95 41 108 7 5 7
8 -1 8 -8 0 -12 15 -11 45 2 29 7 45 15 45 19 0 16 27 -4 38 -15 9 -14 12 8
34 13 14 32 38 41 55 17 29 17 29 -4 29 -12 -1 -23 5 -26 13 -3 10 2 11 19 6
19 -6 21 -5 12 5 -8 9 -26 10 -56 6 -39 -6 -47 -11 -58 -39 -7 -18 -21 -44
-31 -59 -11 -16 -16 -28 -12 -28 13 0 -41 -47 -76 -67 -24 -13 -37 -30 -43
-54 -5 -19 -13 -39 -19 -46 -5 -7 -7 -17 -4 -22 4 -5 1 -13 -5 -16 -5 -4 -9
-22 -7 -40 1 -19 -1 -37 -5 -41 -13 -13 -7 -61 8 -74 21 -17 19 -47 -5 -67
-11 -10 -20 -22 -20 -27 0 -18 -33 -46 -56 -46 -13 0 -26 -5 -29 -10 -4 -6
-10 -8 -15 -5 -11 7 -60 -12 -60 -24 0 -5 8 -12 18 -15 13 -4 18 -19 20 -57
l3 -51 -114 -111 c-62 -62 -126 -130 -142 -152 -16 -22 -35 -44 -42 -48 -7 -4
-13 -13 -13 -20 0 -7 -19 -28 -41 -47 -23 -19 -49 -43 -59 -53 -33 -34 -123
-86 -174 -101 -104 -30 -155 -37 -311 -38 -147 -1 -166 1 -240 24 -115 37
-203 81 -259 127 -26 23 -51 41 -56 41 -4 0 -24 25 -46 55 -21 30 -47 54 -56
55 -10 0 -17 5 -15 11 2 14 -74 61 -127 79 -20 6 -46 22 -57 33 -13 14 -29 21
-47 19 -15 -2 -41 4 -57 12 -17 9 -40 16 -52 16 -13 0 -23 5 -23 10 0 6 -14
10 -31 10 -59 0 -181 52 -227 97 -7 7 -17 13 -22 13 -16 0 -118 107 -136 142
-9 18 -28 48 -42 65 -20 27 -29 32 -51 27 -14 -4 -31 -11 -37 -16 -6 -4 -19
-6 -28 -2 -9 3 -23 1 -30 -5 -11 -9 -16 -9 -23 2 -7 12 -11 11 -28 -6 -20 -20
-20 -20 3 -8 14 8 22 8 22 1 0 -5 -7 -10 -15 -10 -24 0 -29 -2 -50 -16 -26
-19 -65 -18 -65 1 0 12 -5 10 -20 -5 -19 -19 -22 -19 -36 -5 -14 14 -29 19
-46 16 -11 -1 -10 17 1 24 5 3 17 -2 26 -11 18 -19 30 -13 22 11 -6 15 -48 21
-60 8 -4 -3 -19 -8 -33 -9 -24 -3 -25 -2 -9 10 17 12 17 13 1 19 -11 4 -15 3
-11 -4 7 -10 -27 -8 -55 4 -8 4 -25 8 -37 10 -12 2 -26 6 -29 10 -4 4 -15 7
-24 7 -8 0 -32 8 -52 19 l-37 18 16 -31 16 -31 -39 34 c-21 19 -70 64 -109
100 l-70 66 103 2 c56 1 109 6 116 10 8 4 74 5 148 2 151 -8 263 -38 400 -108
l76 -39 -10 31 c-14 41 -42 71 -95 102 l-43 26 32 27 c27 25 29 31 19 50 -13
25 -37 20 -47 -11 -32 -102 -205 -102 -299 0 l-35 38 -170 0 c-141 0 -172 -3
-180 -15 -6 -9 -10 -10 -10 -3 0 6 -24 23 -53 36 -42 20 -60 24 -93 18 -22 -4
-51 -4 -65 1 -13 5 -40 7 -60 4 -63 -10 -233 30 -274 64 -10 8 -32 16 -49 17
-17 0 -69 13 -116 29 -69 22 -104 27 -190 28 -143 1 -210 -16 -369 -95 -132
-66 -135 -67 -92 -29 l44 38 -46 0 c-26 -1 -47 -5 -47 -10 0 -4 -5 -8 -11 -8
-5 0 -7 5 -4 10 3 6 3 10 -2 11 -4 0 -23 2 -40 5 -27 3 -47 -6 -106 -46 -41
-27 -86 -51 -101 -54 -26 -5 -27 -3 -21 27 4 18 11 37 16 43 6 8 4 17 -6 27
-8 9 -15 22 -15 31 0 8 -4 17 -10 21 -5 3 -7 12 -4 19 3 8 1 17 -4 20 -7 4 -6
19 1 42 8 28 19 39 49 51 21 8 38 19 38 24 0 12 2 12 -54 -15 -32 -15 -54 -34
-62 -52 l-12 -29 -1 27 c-1 33 21 50 159 117 96 48 138 73 98 58 -9 -3 -27 2
-41 13 -13 10 -32 19 -43 19 -53 -2 -214 10 -223 16 -6 3 -11 2 -11 -4 0 -5
-8 -9 -17 -9 -10 0 -22 0 -28 -2 -5 -1 -25 -2 -42 -1 -24 1 -33 6 -33 18 0 14
-3 13 -16 -5 -23 -33 -50 -28 -58 9 -3 17 -3 42 0 55 5 18 2 24 -9 24 -16 0
-21 -11 -32 -72 -3 -21 -10 -38 -16 -38 -6 0 -7 -4 -4 -10 3 -6 -1 -7 -9 -4
-9 3 -14 9 -11 13 2 4 -1 8 -8 8 -32 3 -75 11 -85 17 -6 3 -14 1 -17 -4 -5 -8
-12 -7 -23 3 -10 7 -32 14 -51 16 -19 1 -40 6 -46 11 -7 5 -15 7 -18 3 -4 -3
-7 -1 -7 6 0 7 -7 11 -15 8 -8 -4 -17 -2 -20 4 -4 5 -21 7 -39 4 -23 -5 -42
-1 -67 13 -19 11 -51 22 -72 25 -21 3 -47 13 -58 23 -13 11 -37 18 -70 19 -32
1 -54 7 -60 16 -7 12 -9 12 -9 0 0 -12 -3 -12 -12 -3 -13 13 -44 16 -51 5 -2
-5 -2 -2 0 6 2 8 -2 11 -11 8 -8 -3 -17 -3 -20 0 -3 4 -18 8 -32 9 -32 3 -56
23 -47 38 5 8 3 8 -8 0 -8 -5 -32 -10 -54 -9 -32 0 -42 6 -52 25 -8 15 -13 19
-14 10 0 -10 -2 -11 -6 -2 -2 6 -11 12 -19 12 -8 0 -17 7 -20 15 -4 8 -17 15
-30 15 -13 0 -24 5 -24 11 0 6 -9 9 -20 6 -11 -3 -18 -2 -15 2 2 4 -11 14 -30
21 -19 8 -35 18 -35 22 0 5 -4 7 -9 4 -14 -9 -41 5 -41 21 0 8 4 11 10 8 6 -4
7 1 3 11 -6 16 -8 15 -23 -3 -15 -19 -18 -19 -44 -6 -16 8 -44 15 -62 15 -21
0 -38 6 -44 16 -7 13 -9 14 -10 3 0 -11 -3 -12 -11 -4 -6 6 -18 9 -25 6 -9 -3
-14 2 -14 13 0 16 -2 17 -11 4 -9 -12 -10 -11 -6 8 3 15 0 22 -9 22 -8 0 -14
-5 -14 -11 0 -6 -9 -8 -20 -4 -15 5 -18 3 -14 -9 5 -12 -2 -11 -34 4 -22 11
-62 25 -89 31 -71 17 -93 27 -93 43 0 17 -27 28 -51 21 -11 -4 -19 -2 -19 5 0
7 -7 4 -16 -5 -9 -9 -23 -14 -31 -11 -8 3 -23 6 -33 6 -10 0 -25 6 -32 13 -7
6 -20 14 -28 16 -71 18 -80 18 -80 6 0 -10 -9 -11 -37 -4 -21 5 -58 11 -83 14
-53 7 -110 23 -127 38 -9 6 -13 5 -13 -4 0 -12 -2 -12 -9 0 -6 9 -11 10 -15 2
-5 -8 -13 -8 -28 0 -36 19 -78 29 -78 17 0 -16 -171 -4 -184 13 -17 21 -66 42
-63 26 2 -14 -41 -11 -60 5 -17 14 -83 28 -83 18 0 -4 -21 -7 -47 -5 -42 3
-82 6 -183 13 -18 2 -21 5 -11 11 16 10 13 12 -62 37 -43 13 -63 26 -73 45
-13 26 -12 28 18 42 l31 15 -28 26 c-15 14 -31 23 -35 21 -12 -7 -60 13 -60
24 0 5 12 9 28 7 15 -1 32 1 39 6 6 5 14 5 18 -2 3 -5 14 -10 23 -10 14 1 13
4 -5 19 -26 22 -31 43 -8 35 9 -4 15 0 15 10 0 11 9 16 26 16 18 0 28 6 31 21
4 15 12 20 28 16 16 -3 22 0 18 10 -3 8 3 14 18 14 45 3 54 5 82 17 16 7 32
10 37 7 5 -3 12 0 15 6 4 5 13 8 20 5 8 -3 28 2 44 10 17 9 36 12 43 8 17 -11
121 -13 133 -4 31 24 589 11 630 -14 11 -7 36 -13 55 -14 20 -1 65 -10 100
-21 36 -12 73 -21 82 -21 9 0 29 -5 45 -11 31 -13 109 -14 174 -4 25 3 39 3
32 -2 -8 -6 5 -9 35 -10 85 -3 154 -12 167 -23 6 -5 14 -8 17 -5 3 3 30 -6 61
-20 44 -19 69 -24 112 -21 66 5 103 -2 83 -16 -8 -5 -4 -6 13 -3 19 5 28 2 33
-10 5 -14 9 -15 22 -4 11 9 20 10 32 2 9 -5 28 -9 42 -8 14 1 39 -2 55 -7 17
-4 65 -10 108 -13 43 -2 83 -8 90 -12 7 -4 23 -9 36 -11 14 -2 32 -7 42 -13
10 -5 30 -9 46 -9 38 0 105 -25 96 -35 -5 -4 0 -5 9 -2 10 3 20 2 23 -3 3 -5
27 -12 53 -15 26 -4 56 -11 68 -16 11 -6 36 -12 56 -13 19 -2 55 -12 79 -24
24 -11 58 -24 74 -28 17 -3 89 -35 161 -70 72 -35 145 -67 162 -70 17 -4 37
-13 43 -20 6 -8 22 -14 34 -14 12 0 28 -7 35 -15 6 -8 15 -14 18 -13 10 3 254
-121 273 -138 9 -8 19 -11 22 -7 4 3 14 -2 21 -13 8 -10 18 -20 23 -20 24 -4
53 -17 53 -25 0 -4 9 -6 20 -4 11 2 23 -1 26 -7 5 -7 2 -8 -6 -3 -8 5 -11 4
-6 -3 4 -6 13 -9 21 -5 8 3 15 1 15 -5 0 -11 25 -10 36 1 10 10 64 -63 57 -79
-3 -8 1 -14 11 -14 9 0 16 -5 16 -11 0 -5 5 -7 12 -3 6 4 8 3 4 -4 -3 -6 -2
-13 4 -17 6 -4 7 -11 4 -17 -5 -7 -1 -9 9 -5 11 4 17 1 17 -9 0 -8 4 -12 10
-9 5 3 15 -4 20 -17 11 -23 13 -23 158 -20 88 2 157 -1 172 -7 20 -8 17 -9
-20 -4 -40 6 -44 4 -32 -9 7 -9 30 -18 51 -22 22 -3 48 -9 58 -13 12 -4 10 0
-7 15 -23 18 -23 20 -5 19 18 -2 85 -88 85 -109 0 -4 5 -8 11 -8 6 0 26 -13
44 -28 l32 -29 -32 -11 c-44 -17 -48 -15 -43 13 9 47 -9 57 -123 62 -57 3
-120 1 -139 -5 l-35 -10 32 -1 c25 -1 31 -5 30 -20 -1 -13 -6 -17 -17 -13 -13
5 -13 3 -1 -11 7 -9 10 -17 5 -17 -14 0 -64 46 -64 59 0 22 -30 11 -31 -11 -1
-17 -2 -19 -6 -5 -6 21 -18 21 -97 1 -132 -33 -252 -90 -376 -180 -44 -31 -80
-58 -80 -59 0 -1 44 -2 98 -2 76 0 102 4 122 17 92 64 249 123 368 138 186 25
450 -21 590 -102 75 -44 115 -53 147 -32 77 50 -48 157 -239 206 -86 22 -91
24 -82 38 3 6 20 4 43 -4 61 -21 98 -18 118 12 15 24 20 25 66 19 68 -9 346
-96 482 -150 16 -7 17 -5 5 21 -6 16 -19 35 -27 42 -11 9 -11 12 -2 12 18 0 8
48 -31 165 -42 124 -57 186 -50 203 4 11 1 13 -8 7 -8 -5 -11 -4 -6 3 3 6 0
14 -8 19 -14 8 -44 97 -40 121 1 6 2 17 3 23 3 26 20 -7 36 -68 24 -94 36
-121 57 -126 18 -5 22 3 30 57 3 19 37 32 48 18 9 -13 68 -42 84 -42 24 0 20
-11 -24 -51 -65 -61 -51 -85 51 -94 95 -8 128 -16 138 -32 6 -11 10 -12 16 -4
13 22 -42 114 -88 146 -24 17 -77 61 -118 99 -41 38 -85 76 -99 85 -46 29
-112 96 -137 139 -14 23 -29 40 -33 37 -8 -5 -20 18 -20 40 0 24 49 72 80 79
23 4 37 1 52 -14 12 -11 25 -20 30 -20 4 0 7 -6 6 -12 -2 -7 3 -12 10 -10 6 1
12 -2 12 -7 0 -5 14 -14 30 -20 17 -5 30 -14 30 -19 0 -5 14 -15 30 -22 27
-11 32 -11 45 6 8 11 15 25 15 32 0 6 5 12 11 12 5 0 8 -4 5 -9 -3 -5 1 -11 9
-15 8 -3 12 -12 9 -21 -4 -10 0 -15 10 -15 9 0 16 -8 16 -18 0 -10 10 -29 22
-42 12 -13 23 -30 24 -38 3 -18 34 -52 47 -52 6 0 3 6 -8 13 -10 8 -15 19 -12
24 4 6 0 24 -8 39 -17 32 -19 54 -7 54 12 0 10 73 -2 82 -5 3 -9 28 -9 55 0
48 -12 77 -28 67 -9 -5 -11 13 -13 128 -1 47 -5 68 -13 68 -7 0 -13 5 -13 10
0 6 6 10 13 10 6 0 12 11 12 24 0 13 -3 22 -7 19 -5 -2 -8 8 -8 23 0 15 -9 35
-20 44 -16 14 -17 19 -6 23 7 3 16 22 18 41 4 38 0 44 -20 24 -9 -9 -12 -8
-12 4 0 9 6 19 13 21 8 4 8 8 2 14 -14 11 -16 105 -2 96 6 -3 7 -1 3 6 -4 6
-2 19 6 28 11 14 11 16 -2 8 -12 -6 -13 -5 -2 6 14 16 16 33 2 24 -6 -3 -7 1
-4 9 3 9 9 16 13 16 3 0 7 17 7 38 l2 37 -13 -29 -13 -30 2 41 c0 23 4 36 8
30 5 -9 8 -8 8 3 0 13 1 13 10 0 8 -13 10 -12 10 3 0 10 -7 20 -15 23 -18 7
-20 25 -3 22 6 -2 15 11 18 27 4 17 11 39 15 50 l8 20 -16 -20 c-9 -11 -17
-15 -17 -8 0 6 7 18 15 27 8 8 16 25 17 38 2 13 5 25 8 28 3 3 16 27 30 55
l25 49 3 -34 c2 -21 -2 -38 -11 -45 -18 -13 -32 -55 -18 -55 6 0 13 11 17 25
3 13 12 29 20 36 8 6 14 18 14 26 0 22 31 83 40 80 5 -1 16 7 25 18 15 19 15
18 0 -12 -17 -37 -19 -47 -6 -38 5 3 12 1 16 -5 3 -5 1 -10 -4 -10 -6 0 -11
-7 -11 -15 0 -10 6 -12 18 -8 15 6 15 5 4 -10 -7 -8 -12 -28 -10 -43 3 -26 4
-27 20 -11 9 9 18 17 21 17 2 0 2 -24 -1 -52 -6 -70 7 -56 17 17 7 52 6 56
-11 52 -20 -6 -21 -5 -12 18 5 12 9 14 14 4 14 -21 40 15 40 55 0 30 -3 34
-17 29 -17 -6 -17 -6 -1 10 11 11 15 27 12 47 -3 16 -1 46 5 65 8 31 8 35 -5
24 -16 -13 -17 -6 -5 39 6 20 6 30 0 27 -5 -4 -9 -2 -9 4 0 5 6 11 12 13 9 3
8 9 -5 22 -16 17 -17 17 -17 0 0 -10 -3 -15 -6 -11 -10 10 16 75 33 81 11 5
14 2 9 -10 -5 -14 -4 -15 9 -4 12 10 13 16 4 27 -9 10 -8 18 5 31 9 10 16 23
16 28 0 5 -5 2 -11 -6 -8 -11 -9 -8 -4 14 6 27 5 28 -11 15 -11 -9 -8 1 8 26
15 22 32 39 40 37 7 -2 10 -1 6 3 -4 4 3 25 14 46 14 28 26 39 43 39 20 0 23
-4 19 -27 -3 -15 -9 -30 -13 -33 -4 -3 -12 -23 -18 -45 l-12 -40 23 27 24 27
6 -25 c6 -24 10 -22 78 50 67 71 72 75 89 60 20 -18 29 -13 62 39 10 15 26 31
35 34 9 4 20 11 24 17 4 6 9 8 12 5 3 -3 -6 -22 -20 -42 -28 -42 -22 -50 8
-12 11 14 26 25 34 25 9 0 12 5 8 12 -5 7 -3 8 5 4 7 -5 10 -14 7 -22 -4 -9 2
-14 17 -14 16 0 18 3 8 9 -10 6 -10 10 -1 16 9 5 9 9 1 14 -8 5 -4 14 10 27
22 19 22 19 10 -3 -8 -15 -8 -24 0 -28 7 -5 5 -15 -5 -31 -9 -13 -16 -32 -16
-43 0 -11 -4 -22 -10 -26 -5 -3 -7 -12 -3 -21 4 -12 9 -10 22 8 9 13 16 28 16
33 0 6 5 10 10 10 19 0 35 17 33 33 -2 13 3 16 23 14 18 -2 35 5 52 22 14 14
22 27 19 30 -3 3 0 6 6 6 17 0 15 -8 -15 -59 -40 -68 -43 -97 -3 -38 12 17 19
24 16 15 -2 -9 -1 -19 5 -22 5 -2 4 -3 -3 -2 -15 3 -48 -46 -48 -71 0 -14 2
-14 20 2 11 10 17 23 13 29 -3 6 0 6 7 -1 11 -10 10 -16 -5 -33 -10 -11 -13
-20 -7 -20 7 0 12 5 12 11 0 5 10 9 23 7 16 -2 21 2 19 13 -1 9 5 22 13 29 27
22 28 3 3 -34 -14 -20 -28 -33 -31 -30 -4 4 -13 1 -21 -6 -14 -10 -14 -14 -1
-27 8 -8 20 -11 26 -7 8 4 9 3 5 -4 -4 -7 -14 -12 -22 -12 -8 0 -14 -4 -14 -9
0 -5 -17 -16 -37 -25 -31 -14 -33 -16 -11 -13 24 4 26 2 17 -14 -5 -11 -7 -19
-3 -19 3 0 0 -8 -7 -17 -7 -10 0 -6 17 10 17 15 37 27 46 27 8 0 21 7 28 15 7
8 18 15 24 15 6 0 27 11 46 23 19 13 41 22 47 20 7 -3 16 2 19 11 3 9 10 16
15 16 18 0 8 -16 -22 -34 -17 -10 -28 -20 -25 -23 2 -3 17 4 33 14 15 10 37
24 48 29 11 6 20 17 20 24 0 7 9 18 20 24 11 6 23 16 27 21 5 6 8 6 8 -2 0 -6
-10 -19 -22 -27 -12 -9 -18 -16 -12 -16 6 0 14 3 18 8 4 4 11 7 14 7 4 1 18 7
32 15 30 17 52 22 44 9 -3 -5 -9 -7 -14 -4 -12 8 -31 -30 -24 -48 3 -8 1 -18
-5 -22 -7 -3 -8 0 -5 9 9 23 1 20 -27 -11 -13 -15 -16 -21 -6 -13 14 10 20 11
26 2 8 -13 61 10 74 33 4 8 16 12 27 10 11 -2 23 1 26 7 4 6 2 8 -4 4 -6 -3
-13 -2 -16 3 -7 11 22 36 31 27 4 -3 17 4 30 16 17 16 23 18 24 7 2 -20 2 -20
-15 -61 -9 -21 -12 -38 -7 -38 5 0 11 9 14 20 4 14 10 18 23 13 11 -4 13 -8 6
-11 -7 -2 -12 -8 -12 -13 0 -6 18 4 40 22 22 18 37 35 35 39 -8 13 20 29 34
21 11 -7 9 -14 -5 -37 -17 -25 -12 -24 39 16 31 25 57 48 57 52 0 5 5 8 11 8
5 0 -3 -17 -18 -37 -29 -38 -22 -37 36 6 l34 25 -8 -23 c-4 -13 -8 -29 -9 -35
-1 -6 -5 -18 -10 -26 -7 -12 -6 -13 5 -2 15 14 33 17 25 4 -9 -15 29 -7 54 11
33 23 38 22 32 -10 -5 -24 0 -22 39 23 24 28 56 56 72 62 15 5 25 6 22 1 -4
-5 -1 -17 4 -26 9 -15 10 -16 11 -2 0 9 8 26 19 38 16 18 20 19 25 5 3 -8 6
-27 6 -40 0 -29 7 -30 33 -6 19 16 20 16 15 -4 -3 -13 0 -21 8 -21 8 0 14 6
14 14 0 15 16 17 25 3 4 -6 10 -8 15 -5 5 3 12 -4 15 -16 7 -19 7 -20 21 -2
13 17 14 17 20 -5 5 -17 9 -20 15 -11 4 7 3 21 -2 30 -5 10 -5 20 -1 23 5 3
15 -11 22 -30 8 -19 21 -40 29 -47 12 -10 13 -9 3 10 -8 14 -9 24 -2 28 5 3
10 1 10 -5 0 -6 5 -8 10 -5 7 4 6 13 -1 27 -8 15 -8 19 0 14 7 -4 11 1 11 13
0 30 24 16 38 -23 15 -40 15 -59 1 -51 -6 4 -5 -2 2 -13 7 -12 15 -20 16 -18
9 8 19 96 12 96 -5 0 -9 7 -9 15 0 12 5 10 20 -5 12 -12 26 -18 31 -14 7 4 8
9 1 13 -10 6 -26 51 -18 51 12 0 46 -70 40 -84 -5 -12 -2 -15 10 -10 9 3 16
13 16 21 0 9 8 5 23 -11 16 -19 26 -23 37 -16 13 8 13 12 1 32 l-14 23 23 -20
c13 -11 20 -14 16 -7 -4 6 -3 12 3 12 6 0 4 15 -5 36 -23 56 -9 52 17 -4 30
-65 67 -90 50 -34 -1 1 0 3 0 5 1 1 -15 33 -36 72 -22 42 -32 71 -25 73 8 3 7
9 -2 20 -12 15 -11 16 4 3 10 -7 15 -18 12 -23z m-2739 -10 l40 -11 -29 -8
c-17 -5 -97 -9 -179 -10 -118 -2 -150 0 -157 11 -5 9 -4 20 3 28 9 12 37 13
147 8 74 -4 153 -12 175 -18z m2683 -13 c-3 -3 -9 2 -12 12 -6 14 -5 15 5 6 7
-7 10 -15 7 -18z m86 9 c3 -8 2 -12 -4 -9 -6 3 -10 10 -10 16 0 14 7 11 14 -7z
m-964 -64 c0 -13 -58 -72 -92 -93 -16 -10 -28 -23 -28 -29 0 -6 10 -3 23 8
l22 19 -18 -22 c-11 -12 -25 -19 -33 -16 -16 6 -18 19 -4 28 5 3 7 13 4 23 -5
15 -4 15 6 2 9 -11 13 -12 17 -2 2 6 10 12 16 12 7 1 28 19 47 40 39 43 40 44
40 30z m702 -12 c-2 -10 -6 -18 -7 -18 -1 0 -5 8 -7 18 -3 11 0 19 7 19 7 0
10 -8 7 -19z m-1708 -13 c-4 -8 -10 -13 -15 -10 -4 3 -6 12 -3 20 4 8 10 13
15 10 4 -3 6 -12 3 -20z m7190 -86 c17 -20 17 -23 3 -34 -13 -9 -14 -14 -4
-24 9 -10 8 -11 -6 -5 -9 3 -17 11 -16 18 3 25 -2 36 -17 36 -8 0 -12 5 -9 10
3 6 0 10 -8 10 -27 0 -69 75 -51 92 5 6 64 -50 108 -103z m-5539 71 c3 -5 1
-10 -4 -10 -6 0 -11 5 -11 10 0 6 2 10 4 10 3 0 8 -4 11 -10z m-459 -42 c-1
-13 -9 -23 -17 -23 -8 -1 -13 -6 -12 -13 2 -6 -4 -9 -13 -5 -13 5 -11 11 13
33 35 35 34 34 29 8z m7154 -18 c0 -16 -4 -30 -10 -30 -5 0 -10 14 -10 30 0
17 5 30 10 30 6 0 10 -13 10 -30z m-7942 -19 c-23 -30 -58 -41 -58 -20 0 6 6
9 14 6 8 -3 24 5 37 19 31 33 35 30 7 -5z m3560 9 c35 -22 42 -40 14 -40 -10
0 -22 -4 -27 -9 -6 -6 -24 3 -47 25 -21 19 -38 36 -38 39 0 13 69 3 98 -15z
m-228 -20 c11 -7 12 -12 3 -21 -8 -8 -14 -6 -22 10 -12 22 -5 27 19 11z m-65
-70 c0 -22 -29 -18 -33 3 -3 14 1 18 15 15 10 -2 18 -10 18 -18z m3605 4 c0
-14 -3 -14 -15 -4 -8 7 -15 14 -15 16 0 2 7 4 15 4 8 0 15 -7 15 -16z m-6900
-8 c0 -2 -8 -10 -17 -17 -16 -13 -17 -12 -4 4 13 16 21 21 21 13z m3000 -18
c0 -19 -79 -41 -215 -60 -77 -11 -187 -27 -245 -35 -58 -8 -129 -15 -157 -16
-29 -1 -53 -6 -54 -12 0 -5 -9 8 -19 29 -20 43 -17 66 9 66 9 1 48 5 86 10 39
5 135 12 215 16 80 4 147 9 150 11 9 8 230 0 230 -9z m-6805 -113 c401 -69
1033 -200 1021 -213 -5 -4 -74 9 -146 28 -19 5 -107 23 -195 39 -395 73 -561
101 -705 121 -216 30 -251 41 -115 35 61 -3 124 -7 140 -10z m5945 -96 c0 -4
-7 -6 -15 -3 -8 4 -15 10 -15 15 0 4 7 6 15 3 8 -4 15 -10 15 -15z m-7915 -39
c3 -5 1 -10 -4 -10 -6 0 -11 5 -11 10 0 6 2 10 4 10 3 0 8 -4 11 -10z m10343
-22 c-2 -6 -10 -14 -16 -16 -7 -2 -10 2 -6 12 7 18 28 22 22 4z m-31 -100 c-3
-8 -6 -5 -6 6 -1 11 2 17 5 13 3 -3 4 -12 1 -19z m874 2 c149 -12 181 -18 319
-60 52 -17 113 -32 135 -36 36 -5 59 -26 241 -212 110 -114 238 -250 284 -302
98 -112 116 -130 130 -130 15 0 42 -68 33 -83 -5 -9 -2 -8 9 1 13 10 18 9 31
-10 8 -13 24 -34 36 -48 29 -36 33 -40 64 -87 29 -45 33 -59 18 -65 -6 -1 -11
-14 -13 -28 -2 -14 -9 -34 -16 -45 -12 -19 -13 -19 -7 2 5 18 3 22 -9 17 -11
-4 -16 0 -16 11 0 15 -2 16 -17 4 -15 -13 -15 -14 0 -17 18 -4 23 -27 8 -36
-15 -10 -10 -58 5 -52 8 3 14 4 14 2 0 -3 3 -12 7 -22 4 -12 3 -15 -5 -10 -7
4 -12 2 -12 -3 0 -6 -7 -11 -15 -11 -8 0 -15 5 -15 10 0 6 -10 0 -22 -12 l-22
-22 -13 30 -13 29 2 -40 c1 -22 6 -46 11 -52 7 -9 5 -13 -7 -13 -10 0 -16 -8
-16 -22 0 -21 0 -21 16 -2 15 18 15 18 8 -5 -4 -16 -3 -21 5 -17 16 10 14 -17
-4 -50 -10 -20 -15 -23 -15 -11 0 9 -4 17 -10 17 -5 0 -7 8 -4 18 4 13 3 13
-7 -3 -12 -19 -12 -19 -19 0 -4 11 -1 35 7 54 12 28 12 35 1 42 -11 7 -10 11
2 18 8 6 11 14 6 18 -5 4 -11 2 -13 -4 -3 -7 -11 -13 -19 -13 -8 0 -14 -8 -15
-17 0 -11 -3 -13 -6 -5 -7 17 -23 15 -23 -3 0 -8 4 -15 9 -15 5 0 11 -9 14
-20 3 -13 0 -20 -10 -20 -8 0 -12 4 -8 9 3 6 -1 13 -8 18 -15 9 -29 63 -17 63
4 0 10 12 13 26 4 23 3 24 -11 10 -9 -9 -15 -32 -15 -58 0 -24 -1 -34 -4 -24
-4 15 -7 16 -14 5 -6 -10 -9 -10 -9 -1 0 6 -7 12 -15 12 -8 0 -15 -4 -15 -9 0
-5 -3 -16 -6 -24 -3 -10 1 -17 13 -20 10 -2 3 -4 -14 -4 -25 0 -33 4 -33 19 0
10 5 18 10 18 6 0 10 5 10 10 0 19 -22 10 -27 -11 -5 -16 -8 -18 -15 -7 -6 8
-7 0 -3 -24 4 -24 2 -38 -5 -38 -5 0 -10 9 -10 20 0 11 -3 20 -7 20 -5 0 -18
3 -30 6 -18 5 -23 2 -23 -11 0 -14 -3 -15 -15 -5 -8 7 -15 9 -15 6 0 -4 -7 -1
-15 8 -8 8 -15 20 -15 26 0 6 -4 9 -9 6 -5 -4 -21 -2 -35 4 -21 7 -26 6 -26
-5 0 -8 -4 -15 -9 -15 -9 0 -24 -30 -18 -37 9 -9 35 10 31 22 -7 16 12 29 21
15 4 -6 0 -19 -9 -29 -17 -19 -22 -36 -7 -27 4 3 17 -2 27 -10 17 -14 17 -15
1 -10 -10 3 -24 -2 -34 -13 -9 -11 -23 -17 -31 -13 -13 4 -12 7 4 13 16 6 15
8 -8 8 -17 1 -28 -5 -31 -16 -4 -17 -4 -17 -12 0 -4 10 -3 28 4 40 6 12 9 14
7 5 -6 -19 9 -25 18 -9 8 13 -4 42 -15 35 -5 -3 -9 2 -9 10 0 9 -5 16 -11 16
-6 0 -8 -9 -4 -22 5 -18 4 -19 -4 -8 -16 23 -26 2 -14 -30 7 -18 7 -32 2 -36
-5 -3 -9 2 -9 10 0 9 -8 16 -18 16 -10 0 -23 5 -30 12 -9 9 -12 9 -12 0 0 -7
5 -12 10 -12 6 0 10 -4 10 -10 0 -5 -5 -9 -12 -7 -7 1 -13 -2 -13 -8 -1 -5 -6
-21 -12 -35 -6 -14 -13 -32 -16 -40 -3 -9 -6 -4 -6 12 -1 14 -7 29 -13 32 -10
5 -10 7 0 12 7 3 17 15 24 27 l11 22 -23 -20 -23 -20 7 21 c7 23 -18 42 -29
24 -4 -6 -1 -10 5 -10 7 0 10 -7 6 -15 -3 -8 0 -15 6 -15 26 0 -18 -28 -52
-34 -19 -3 -29 -3 -22 0 16 8 15 24 -1 24 -8 0 -19 -10 -25 -22 -6 -13 -11
-17 -11 -9 -1 24 -30 -20 -31 -46 0 -12 -4 -25 -10 -28 -5 -3 -10 -12 -10 -18
0 -7 9 2 20 18 11 17 20 25 20 18 0 -6 -4 -15 -10 -18 -15 -10 -12 -23 8 -28
9 -2 3 -4 -15 -4 -37 0 -50 21 -28 44 8 8 12 20 8 26 -5 8 -8 8 -11 -1 -2 -7
-8 -10 -13 -6 -5 3 -9 -3 -10 -13 0 -10 -5 -3 -10 15 -6 19 -14 30 -20 26 -8
-4 -7 -10 2 -16 11 -7 10 -8 -4 -4 -12 4 -26 -3 -42 -22 -18 -20 -27 -24 -33
-14 -6 9 -13 7 -30 -8 -25 -24 -32 -25 -32 -5 0 8 7 15 15 15 22 0 18 17 -5
23 -12 3 -20 1 -19 -6 3 -24 -1 -37 -12 -37 -6 0 -8 8 -5 18 4 13 1 19 -9 19
-9 0 -14 -6 -10 -14 3 -7 8 -20 11 -28 4 -9 1 -15 -9 -15 -8 0 -30 -3 -48 -7
-32 -6 -33 -5 -19 12 14 17 14 17 -6 7 -16 -8 -24 -8 -32 0 -9 9 -12 9 -12 0
0 -7 -9 -12 -20 -12 -11 0 -20 5 -20 10 0 6 -7 10 -15 10 -8 0 -15 -4 -15 -8
0 -5 -20 -9 -45 -11 -46 -2 -52 3 -34 29 10 13 10 13 6 0 -3 -10 2 -16 12 -16
9 0 17 7 17 16 0 17 -22 20 -44 6 -7 -4 -12 -2 -12 4 0 6 -7 4 -17 -5 -14 -14
-14 -18 -2 -26 9 -5 -24 -9 -88 -9 -62 0 -103 4 -103 10 0 6 -5 10 -11 10 -5
0 -7 -4 -4 -10 4 -6 -8 -10 -29 -10 -20 0 -36 5 -36 11 0 6 9 8 20 4 11 -4 20
-2 20 4 0 13 -37 15 -44 2 -3 -5 -15 -11 -26 -14 -17 -4 -20 -2 -15 14 4 11 2
19 -4 19 -6 0 -11 -7 -11 -15 0 -8 -4 -15 -8 -15 -5 0 -8 14 -7 30 1 19 -3 30
-12 30 -8 0 -12 -8 -10 -22 2 -13 2 -17 0 -10 -7 20 -33 14 -33 -8 0 -16 -7
-20 -35 -20 -30 0 -35 4 -35 23 -1 20 -2 21 -14 5 -13 -18 -96 -26 -96 -10 0
4 -17 7 -37 5 -36 -3 -36 -2 -13 8 19 8 21 13 10 17 -8 3 -19 10 -23 16 -6 7
-7 4 -3 -6 4 -13 0 -18 -14 -18 -11 0 -20 -6 -21 -12 0 -10 -2 -10 -6 0 -4 10
-8 10 -19 1 -11 -9 -14 -7 -14 14 0 29 -25 44 -27 16 -1 -10 4 -19 10 -19 7 0
4 -5 -6 -11 -9 -5 -23 -7 -30 -2 -6 4 -22 6 -34 4 -13 -1 -23 2 -23 8 0 6 -19
8 -50 4 -32 -4 -50 -2 -50 5 0 5 -8 8 -19 5 -15 -4 -64 3 -146 21 -92 19 -235
67 -235 78 0 4 -9 8 -19 8 -11 0 -23 5 -26 10 -3 6 -14 10 -23 10 -25 0 -185
170 -187 200 -1 3 -10 23 -22 45 -51 98 -202 484 -238 608 -29 102 -2 160 102
216 124 67 295 115 618 172 140 24 428 67 510 75 77 8 240 27 259 30 10 2 75
6 145 10 69 4 128 8 130 10 9 8 222 4 352 -6z m-6181 -10 c0 -5 -4 -10 -9 -10
-6 0 -13 5 -16 10 -3 6 1 10 9 10 9 0 16 -4 16 -10z m8587 -16 c-3 -3 -12 -4
-19 -1 -8 3 -5 6 6 6 11 1 17 -2 13 -5z m43 -18 c0 -3 -4 -8 -10 -11 -5 -3
-10 -1 -10 4 0 6 5 11 10 11 6 0 10 -2 10 -4z m80 -36 c0 -5 -4 -10 -9 -10 -6
0 -13 5 -16 10 -3 6 1 10 9 10 9 0 16 -4 16 -10z m-290 -10 c0 -5 -4 -10 -10
-10 -5 0 -10 5 -10 10 0 6 5 10 10 10 6 0 10 -4 10 -10z m275 -60 c3 -5 1 -10
-4 -10 -6 0 -11 5 -11 10 0 6 2 10 4 10 3 0 8 -4 11 -10z m-1003 -110 c0 -11
1 -25 2 -32 1 -6 -6 -13 -14 -16 -8 -3 -12 -1 -8 3 4 5 3 14 -2 20 -11 14 -3
45 11 45 5 0 10 -9 11 -20z m-4775 -72 c-3 -8 -6 -5 -6 6 -1 11 2 17 5 13 3
-3 4 -12 1 -19z m-5062 -18 c3 -5 2 -10 -4 -10 -5 0 -13 5 -16 10 -3 6 -2 10
4 10 5 0 13 -4 16 -10z m5855 -29 c0 -6 -4 -13 -10 -16 -5 -3 -10 1 -10 9 0 9
5 16 10 16 6 0 10 -4 10 -9z m-783 -7 c-3 -3 -12 -4 -19 -1 -8 3 -5 6 6 6 11
1 17 -2 13 -5z m383 -124 c0 -5 -2 -10 -4 -10 -3 0 -8 5 -11 10 -3 6 -1 10 4
10 6 0 11 -4 11 -10z m-353 -42 c-3 -7 -5 -2 -5 12 0 14 2 19 5 13 2 -7 2 -19
0 -25z m100 -10 c-3 -7 -5 -2 -5 12 0 14 2 19 5 13 2 -7 2 -19 0 -25z m6200
-74 c-9 -9 -28 6 -21 18 4 6 10 6 17 -1 6 -6 8 -13 4 -17z m-258 -118 c6 -7
12 -25 13 -39 1 -15 8 -29 15 -31 19 -8 52 -83 46 -106 -7 -26 -25 -26 -21 -1
2 11 -7 28 -19 38 -25 22 -72 122 -66 141 6 16 18 15 32 -2z m-9232 -188 c-3
-7 -5 -2 -5 12 0 14 2 19 5 13 2 -7 2 -19 0 -25z m4363 12 c0 -5 -5 -10 -11
-10 -5 0 -7 5 -4 10 3 6 8 10 11 10 2 0 4 -4 4 -10z m-729 -29 c-8 -5 -9 -11
-3 -15 6 -3 13 -2 17 4 3 5 11 10 16 10 6 0 7 -5 3 -12 -5 -7 -3 -8 5 -3 14 8
71 -41 71 -61 0 -6 -46 -54 -102 -105 -56 -52 -113 -106 -127 -121 -14 -16
-31 -28 -37 -28 -7 0 -14 -6 -17 -14 -4 -9 -14 -12 -26 -9 -17 4 -21 13 -21
45 0 23 4 37 10 33 6 -3 10 4 10 18 0 40 37 111 70 132 16 11 30 23 30 28 0 4
7 7 16 7 8 0 12 5 9 11 -4 6 2 13 14 16 12 3 21 12 21 19 0 8 5 14 11 14 6 0
9 9 6 20 -4 15 0 20 16 20 16 0 18 -3 8 -9z m5700 -25 c-1 -3 8 -15 19 -26 11
-11 25 -40 31 -65 6 -25 15 -45 20 -45 5 0 9 -13 9 -30 0 -45 -18 -36 -32 16
-7 26 -18 48 -24 51 -7 2 -9 13 -6 25 2 11 0 23 -6 27 -6 3 -14 20 -18 36 -4
17 -4 27 0 23 4 -3 7 -9 7 -12z m-4851 -76 c0 -5 -4 -10 -10 -10 -5 0 -10 5
-10 10 0 6 5 10 10 10 6 0 10 -4 10 -10z m3265 0 c3 -5 -1 -10 -10 -10 -9 0
-13 5 -10 10 3 6 8 10 10 10 2 0 7 -4 10 -10z m-3487 -47 c23 -14 39 -40 30
-48 -6 -6 -108 58 -108 67 0 11 50 -1 78 -19z m3829 -55 c-3 -8 -6 -5 -6 6 -1
11 2 17 5 13 3 -3 4 -12 1 -19z m1341 -53 c-3 -3 -9 2 -12 12 -6 14 -5 15 5 6
7 -7 10 -15 7 -18z m-155 -30 c-7 -21 -13 -19 -13 6 0 11 4 18 10 14 5 -3 7
-12 3 -20z m-1663 -35 c0 -5 -5 -10 -11 -10 -5 0 -7 5 -4 10 3 6 8 10 11 10 2
0 4 -4 4 -10z m57 -62 c-3 -8 -6 -5 -6 6 -1 11 2 17 5 13 3 -3 4 -12 1 -19z
m-287 -14 c0 -2 -15 -4 -32 -4 -23 0 -29 3 -19 9 12 8 51 4 51 -5z m-180 -2
c0 -14 -11 -21 -26 -15 -21 8 -17 23 6 23 11 0 20 -4 20 -8z m-3627 -34 c7
-24 -5 -23 -28 1 -16 19 -16 20 3 18 12 0 23 -9 25 -19z m3687 7 c10 -12 10
-15 -3 -15 -8 0 -17 7 -21 15 -3 8 -2 15 3 15 5 0 14 -7 21 -15z m50 0 c-7 -8
-16 -12 -21 -9 -13 8 -1 24 18 24 13 0 13 -3 3 -15z m180 5 c0 -5 -4 -10 -9
-10 -6 0 -13 5 -16 10 -3 6 1 10 9 10 9 0 16 -4 16 -10z m-340 -24 c0 -3 -4
-8 -10 -11 -5 -3 -10 -1 -10 4 0 6 5 11 10 11 6 0 10 -2 10 -4z m228 -21 c-3
-3 -9 2 -12 12 -6 14 -5 15 5 6 7 -7 10 -15 7 -18z m-81 -7 c-3 -8 -6 -5 -6 6
-1 11 2 17 5 13 3 -3 4 -12 1 -19z m1948 13 c-6 -5 -26 -12 -45 -16 -31 -7
-33 -6 -21 9 7 9 27 16 44 16 19 0 27 -4 22 -9z m-1970 -31 c3 -5 1 -10 -4
-10 -6 0 -11 5 -11 10 0 6 2 10 4 10 3 0 8 -4 11 -10z m405 -20 c0 -5 -5 -10
-11 -10 -5 0 -7 5 -4 10 3 6 8 10 11 10 2 0 4 -4 4 -10z m-913 -25 c-4 -8 -11
-15 -17 -15 -7 0 -7 6 0 21 13 23 26 19 17 -6z m97 0 c-4 -8 -8 -15 -10 -15
-2 0 -4 7 -4 15 0 8 4 15 10 15 5 0 7 -7 4 -15z m701 5 c-3 -5 -16 -10 -28 -9
-21 0 -21 1 -2 9 28 12 37 12 30 0z m-308 -16 c-3 -3 -12 -4 -19 -1 -8 3 -5 6
6 6 11 1 17 -2 13 -5z m63 -4 c0 -5 -5 -10 -11 -10 -5 0 -7 5 -4 10 3 6 8 10
11 10 2 0 4 -4 4 -10z m-1563 -22 c-3 -8 -6 -5 -6 6 -1 11 2 17 5 13 3 -3 4
-12 1 -19z m-7378 -6 c5 -10 6 -24 2 -31 -6 -9 -10 -3 -13 18 -5 36 -3 38 11
13z m9721 -43 c0 -5 -7 -9 -15 -9 -15 0 -20 12 -9 23 8 8 24 -1 24 -14z
m-1885 -59 c-3 -5 -13 -10 -21 -10 -8 0 -14 5 -14 10 0 6 9 10 21 10 11 0 17
-4 14 -10z m-7545 -15 c0 -8 -2 -15 -4 -15 -2 0 -6 7 -10 15 -3 8 -1 15 4 15
6 0 10 -7 10 -15z m8623 4 c-14 -13 -63 -22 -63 -11 0 6 10 12 23 14 37 6 48
5 40 -3z m-78 -9 c3 -5 1 -10 -4 -10 -6 0 -11 5 -11 10 0 6 2 10 4 10 3 0 8
-4 11 -10z m315 -144 c0 -3 -4 -8 -10 -11 -5 -3 -10 -1 -10 4 0 6 5 11 10 11
6 0 10 -2 10 -4z m-7933 -102 c-3 -3 -12 -4 -19 -1 -8 3 -5 6 6 6 11 1 17 -2
13 -5z m99 -28 c38 -14 62 -25 54 -25 -8 0 -44 10 -80 24 -85 31 -64 32 26 1z
m-711 -6 c3 -6 -11 -8 -35 -5 -23 2 -53 0 -66 -5 -14 -6 -24 -6 -24 0 0 5 -15
10 -32 12 -18 2 8 4 59 6 51 1 95 -3 98 -8z m-325 -11 c0 -13 -28 -18 -33 -6
-3 7 3 13 14 13 11 0 19 -3 19 -7z m307 -46 c-3 -10 -5 -4 -5 12 0 17 2 24 5
18 2 -7 2 -21 0 -30z m-277 -216 c97 2 175 -2 207 -10 l53 -12 -26 -33 c-14
-17 -44 -45 -67 -60 -41 -27 -44 -28 -102 -17 l-60 11 40 8 c62 12 77 17 70
24 -4 4 -19 8 -33 8 -15 1 -58 4 -96 7 -37 3 -77 2 -87 -4 -10 -5 -28 -13 -39
-19 -23 -12 -103 -14 -97 -2 3 4 32 21 66 37 33 17 60 33 61 37 0 3 -30 9 -67
13 -38 3 -84 10 -103 15 -23 5 -7 6 45 2 44 -4 150 -6 235 -5z m-2470 -47 c0
-5 -2 -10 -4 -10 -3 0 -8 5 -11 10 -3 6 -1 10 4 10 6 0 11 -4 11 -10z m8334
-230 c18 0 29 -59 15 -76 -6 -8 -17 -14 -24 -14 -8 0 -16 -8 -18 -17 -3 -12
-5 -8 -6 9 0 14 -7 28 -13 31 -9 3 -8 10 6 26 25 28 12 40 -17 14 -12 -11 -29
-24 -37 -28 -13 -8 -13 -7 0 11 25 32 38 44 49 44 5 0 13 10 17 23 l8 22 4
-22 c2 -13 9 -23 16 -23z m-937 14 c-3 -3 -12 -4 -19 -1 -8 3 -5 6 6 6 11 1
17 -2 13 -5z m113 -11 c-8 -3 -18 -10 -21 -16 -8 -12 -39 -2 -39 13 0 5 17 10
38 9 20 0 30 -3 22 -6z m301 -28 c225 -25 276 -36 264 -56 -5 -6 -11 -4 -19 7
-10 13 -24 16 -70 12 -32 -3 -61 -10 -66 -17 -5 -10 -9 -9 -13 2 -6 16 -57 30
-57 15 0 -5 -5 -6 -11 -3 -5 4 -25 9 -42 12 -18 3 -33 9 -35 14 -5 12 -42 11
-42 -1 0 -15 -28 -12 -37 3 -9 16 -73 31 -73 18 0 -17 -50 -22 -65 -7 -11 11
-12 16 -2 19 21 9 37 8 268 -18z m607 -41 c-22 -12 -48 -9 -48 6 0 4 16 8 35
7 34 -1 34 -2 13 -13z m56 0 c9 -22 8 -24 -9 -18 -8 4 -15 12 -15 20 0 19 16
18 24 -2z m23 -16 c-3 -8 -6 -5 -6 6 -1 11 2 17 5 13 3 -3 4 -12 1 -19z m-314
-9 c75 -29 97 -51 97 -97 0 -20 -4 -43 -9 -51 -6 -9 -8 0 -7 27 1 23 0 39 -3
37 -2 -3 -10 4 -18 15 -8 11 -22 20 -31 20 -14 0 -15 2 -2 10 11 7 6 13 -25
26 -22 9 -53 20 -70 24 -22 6 -25 8 -8 9 11 1 46 -9 76 -20z m47 -228 c-5 -11
-15 -23 -21 -27 -6 -3 -3 5 6 20 20 30 30 35 15 7z m-6517 -148 c-7 -2 -19 -2
-25 0 -7 3 -2 5 12 5 14 0 19 -2 13 -5z m-313 -57 c0 -3 -4 -8 -10 -11 -5 -3
-10 -1 -10 4 0 6 5 11 10 11 6 0 10 -2 10 -4z m10092 -18 c-7 -7 -12 -8 -12
-2 0 14 12 26 19 19 2 -3 -1 -11 -7 -17z m-10402 -112 c0 -3 -4 -8 -10 -11 -5
-3 -10 -1 -10 4 0 6 5 11 10 11 6 0 10 -2 10 -4z m350 -10 c0 -2 -9 -6 -20 -9
-11 -3 -20 -1 -20 4 0 5 9 9 20 9 11 0 20 -2 20 -4z m653 -3 c-7 -2 -21 -2
-30 0 -10 3 -4 5 12 5 17 0 24 -2 18 -5z m47 -15 c0 -5 5 -6 12 -2 7 4 8 3 4
-4 -5 -9 -13 -9 -27 -2 -23 13 -24 17 -4 17 8 0 15 -4 15 -9z m9213 0 c-13 -6
-23 -14 -23 -18 0 -5 -7 -10 -15 -14 -8 -3 -15 -2 -15 2 0 9 51 42 65 41 6 0
0 -5 -12 -11z m-8867 -83 c-10 -8 -24 -11 -29 -8 -6 4 -2 10 9 14 31 12 40 9
20 -6z m-1556 -45 c0 -5 -8 -10 -17 -10 -15 0 -16 2 -3 10 19 12 20 12 20 0z
m598 -57 c-16 -2 -40 -2 -55 0 -16 2 -3 4 27 4 30 0 43 -2 28 -4z m-1014 -17
c-3 -9 -12 -12 -22 -9 -15 6 -9 11 25 22 1 1 0 -5 -3 -13z m894 7 c-10 -2 -26
-2 -35 0 -10 3 -2 5 17 5 19 0 27 -2 18 -5z m353 -13 c5 0 9 -13 9 -30 0 -16
5 -30 11 -30 7 0 10 -13 7 -35 -3 -28 -2 -32 10 -22 12 9 14 8 11 -8 -3 -11
-7 -18 -11 -15 -3 3 -17 -5 -31 -18 -21 -20 -25 -21 -37 -7 -12 15 -4 21 23
16 5 -1 5 3 2 9 -5 8 -13 7 -28 -2 -19 -12 -37 -14 -77 -9 -6 0 -5 10 3 24 8
12 20 43 27 69 7 26 16 45 21 42 5 -3 12 2 15 11 4 9 13 14 21 11 8 -3 19 -6
24 -6z m52 -17 c19 -17 20 -17 14 0 -4 9 -2 17 2 17 5 0 11 -6 14 -14 4 -9 19
-13 40 -12 20 1 33 -2 31 -6 -3 -5 2 -8 11 -8 10 0 13 -5 9 -12 -5 -9 -2 -9 9
1 9 7 17 10 17 5 -1 -13 -29 -49 -40 -50 -6 -1 -14 -2 -20 -3 -5 0 -18 -11
-29 -23 l-20 -21 4 21 c2 12 -1 24 -6 27 -5 4 -7 11 -3 16 3 6 -2 9 -12 7 -11
-2 -18 2 -16 10 1 6 -2 12 -8 12 -5 0 -10 9 -10 21 0 11 -4 17 -10 14 -5 -3
-10 -1 -10 4 0 16 11 13 33 -6z m-297 -23 c-3 -19 -2 -29 4 -25 6 3 10 14 10
24 0 10 8 21 18 23 11 3 19 0 19 -8 0 -7 -4 -11 -9 -8 -4 3 -8 0 -8 -5 0 -6
10 -11 21 -11 16 0 20 5 16 19 -3 14 1 19 19 19 14 0 27 -5 30 -9 3 -5 9 -7
14 -4 5 3 3 -14 -3 -37 l-13 -43 -54 -2 c-100 -3 -177 -10 -189 -17 -7 -5 -11
1 -11 14 0 13 -4 18 -11 14 -6 -3 -9 -14 -6 -24 3 -12 0 -17 -8 -14 -15 6 -30
-13 -38 -47 -5 -21 -16 -29 -47 -37 -42 -10 -69 4 -55 30 4 7 -1 4 -9 -6 -9
-11 -16 -23 -16 -27 0 -4 -7 -10 -16 -13 -12 -4 -15 -2 -10 9 3 8 0 14 -7 12
-14 -2 -13 20 3 82 6 24 8 51 6 58 -3 8 -1 11 4 8 18 -11 51 -14 45 -4 -4 5
-11 7 -16 4 -5 -4 -9 -4 -9 -1 0 3 10 10 21 17 17 9 20 8 14 -3 -6 -10 -5 -11
6 0 19 17 46 15 58 -5 9 -16 10 -15 11 5 0 19 4 22 23 17 12 -4 29 -15 39 -26
22 -25 26 -24 30 8 2 14 8 28 15 30 7 3 9 -3 6 -16 -4 -16 -1 -21 16 -21 12 0
21 6 21 15 0 8 5 15 10 15 6 0 10 -10 10 -22 1 -22 1 -22 15 -4 8 10 12 22 10
27 -4 6 7 15 24 18 2 1 1 -13 -3 -29z m-1176 -4 c0 -3 -4 -8 -10 -11 -5 -3
-10 -1 -10 4 0 6 5 11 10 11 6 0 10 -2 10 -4z m1700 -17 c0 -9 7 -20 16 -23
10 -4 13 -13 9 -28 -6 -23 -6 -23 13 1 19 23 20 23 30 5 10 -17 11 -15 8 11
-2 17 -1 24 1 17 3 -7 15 -10 29 -8 17 3 24 1 21 -7 -3 -7 -10 -11 -17 -9 -7
2 -10 -3 -7 -12 6 -16 -20 -37 -70 -54 -25 -8 -33 -8 -33 1 0 9 -2 9 -8 0 -8
-12 -62 -13 -62 0 0 4 -12 6 -26 5 -43 -5 -38 17 16 69 53 51 80 62 80 32z
m-919 -1 c0 -10 2 -10 6 0 8 19 22 14 18 -7 -2 -11 -7 -40 -11 -66 -3 -26 -15
-56 -25 -66 -9 -9 -15 -19 -13 -22 3 -2 -16 -3 -40 -2 -28 1 -43 -2 -39 -8 4
-6 -1 -8 -10 -4 -10 3 -17 2 -17 -3 0 -6 5 -10 10 -10 6 0 10 -4 10 -10 0 -15
-17 -12 -23 5 -9 22 65 196 81 190 7 -3 10 0 7 5 -3 6 5 10 19 10 14 0 26 -6
27 -12z m-174 -4 c-3 -3 -12 -4 -19 -1 -8 3 -5 6 6 6 11 1 17 -2 13 -5z m-676
-51 c-10 -17 -10 -16 -11 3 0 23 13 41 18 25 2 -6 -1 -18 -7 -28z m749 28 c0
-6 -9 -16 -21 -24 -13 -10 -16 -16 -8 -19 16 -5 -50 -117 -68 -118 -7 0 -13
-7 -13 -16 0 -12 -8 -14 -36 -10 -25 5 -33 3 -28 -6 5 -8 2 -9 -12 -4 -10 4
-26 9 -34 11 -8 2 -17 4 -20 5 -3 0 5 9 18 20 13 11 18 21 12 25 -6 4 -4 15 6
31 9 13 13 24 8 24 -4 0 3 11 15 24 24 25 61 41 61 25 0 -5 11 -2 25 7 15 10
25 12 25 5 0 -17 14 -13 36 8 21 22 34 26 34 12z m1175 -43 c-3 -24 -2 -37 1
-30 3 6 9 12 13 12 4 0 8 -6 9 -12 0 -7 2 -21 4 -32 2 -12 -4 -20 -14 -21 -20
-4 -23 6 -7 22 8 8 6 11 -7 10 -14 -2 -19 5 -19 23 0 14 -4 28 -10 33 -6 4 -3
13 9 22 27 20 27 20 21 -27z m50 31 c-3 -4 -2 -14 1 -23 5 -13 9 -14 20 -5 14
11 20 -1 14 -26 -2 -5 -2 -18 -2 -27 0 -11 -6 -16 -19 -15 -22 2 -22 2 -8 30
7 12 8 19 4 15 -4 -4 -16 1 -26 11 -21 19 -17 48 6 48 8 0 12 -4 10 -8z
m-1455 -92 c-11 -34 -26 -72 -32 -84 l-11 -23 -23 26 c-26 27 -40 67 -29 84 3
5 11 8 16 5 5 -4 9 -2 9 4 0 6 11 13 24 17 14 3 33 18 42 32 27 41 29 9 4 -61z
m1045 74 c3 -5 1 -12 -5 -16 -5 -3 -10 1 -10 9 0 18 6 21 15 7z m477 -15 c7 5
9 0 6 -14 -4 -12 -2 -25 3 -28 8 -5 13 9 10 29 0 4 4 7 10 7 11 0 5 -29 -13
-67 -13 -27 -30 -31 -21 -5 6 15 5 15 -10 4 -15 -12 -15 -11 -7 19 5 18 8 42
6 53 -2 12 -1 15 1 8 3 -7 9 -9 15 -6z m-756 -13 c-4 -5 -21 -8 -37 -8 -16 0
-29 3 -29 8 0 4 17 7 37 7 20 0 33 -3 29 -7z m51 1 c-3 -3 -12 -4 -19 -1 -8 3
-5 6 6 6 11 1 17 -2 13 -5z m301 -29 c-2 -6 -6 -9 -9 -8 -4 1 -6 -5 -5 -14 0
-9 -8 -17 -21 -19 -29 -5 -29 3 -1 33 21 23 43 27 36 8z m499 -7 c-3 -8 -6 -5
-6 6 -1 11 2 17 5 13 3 -3 4 -12 1 -19z m-1782 -30 c0 -6 6 -13 14 -16 8 -3
11 0 7 6 -3 6 -3 13 1 15 5 3 18 -17 30 -44 12 -27 18 -49 12 -49 -5 0 -9 -4
-9 -10 0 -5 7 -7 15 -4 9 4 15 0 15 -10 0 -12 -10 -15 -42 -14 -24 1 -54 -1
-68 -5 -14 -4 -19 -4 -12 -1 6 3 12 13 12 22 -1 14 -4 13 -19 -5 -12 -14 -22
-18 -31 -13 -8 5 -18 6 -24 3 -5 -3 -6 -1 -3 4 4 6 1 13 -7 16 -7 3 -16 17
-18 30 -6 28 17 41 45 25 13 -7 15 -5 11 5 -3 10 5 18 25 25 19 7 31 18 31 28
0 10 3 14 8 10 4 -4 7 -13 7 -18z m970 10 c-24 -15 -48 -16 -57 -4 -4 6 -12 6
-20 0 -20 -15 -92 -19 -83 -4 4 6 12 9 19 7 6 -2 20 -1 31 4 11 4 45 8 75 8
47 0 52 -1 35 -11z m582 -3 c0 -8 -4 -15 -9 -15 -4 0 -8 7 -8 15 0 8 4 15 8
15 5 0 9 -7 9 -15z m-777 -15 c0 -13 -11 -13 -30 0 -12 8 -11 10 8 10 12 0 22
-4 22 -10z m-1720 -14 c0 -3 -4 -8 -10 -11 -5 -3 -10 -1 -10 4 0 6 5 11 10 11
6 0 10 -2 10 -4z m360 0 c0 -2 -7 -7 -16 -10 -8 -3 -12 -2 -9 4 6 10 25 14 25
6z m2574 -21 c-9 -14 -12 -25 -8 -25 8 0 -48 -56 -91 -90 -17 -13 -18 -13 -10
0 9 16 118 140 123 140 1 0 -5 -11 -14 -25z m39 -50 c-7 -21 -12 -19 -10 4 0
11 5 18 9 15 4 -3 5 -11 1 -19z m-2160 -45 c15 -25 17 -31 5 -22 -14 11 -17
10 -23 -8 -5 -16 -12 -19 -27 -14 -16 5 -19 3 -12 -7 6 -12 5 -12 -9 0 -20 16
-23 35 -4 28 8 -3 14 1 14 8 0 8 -7 11 -15 7 -11 -4 -14 -1 -9 11 4 12 1 17
-11 18 -13 0 -12 3 6 11 12 6 22 15 22 21 0 17 40 -17 63 -53z m2133 38 c4 -7
4 -10 -1 -6 -4 4 -14 3 -22 -3 -8 -8 -13 -8 -13 -1 0 6 6 13 13 15 6 3 13 6
14 6 1 1 5 -5 9 -11z m-503 -5 c-7 -2 -21 -2 -30 0 -10 3 -4 5 12 5 17 0 24
-2 18 -5z m-578 -10 c-132 -19 -224 -28 -217 -21 10 10 132 26 197 25 29 0 38
-2 20 -4z m7130 -165 c453 -385 601 -512 717 -615 l128 -114 -16 -30 c-8 -17
-22 -33 -29 -36 -8 -3 -12 -9 -9 -14 9 -15 68 -10 92 7 27 19 8 32 189 -134
75 -69 123 -107 126 -100 3 8 6 9 6 2 1 -6 -6 -17 -14 -24 -17 -14 -10 -16
-280 88 -195 74 -578 216 -770 284 l-120 43 -28 145 c-57 300 -97 442 -166
593 -37 81 -38 87 -8 61 12 -11 94 -81 182 -156z m-8307 146 c5 -9 4 -29 -2
-50 -13 -40 -44 -46 -75 -15 -17 17 -18 21 -4 41 11 16 18 19 26 11 17 -17 27
-13 27 9 0 24 15 26 28 4z m422 6 c0 -5 -4 -10 -10 -10 -5 0 -10 5 -10 10 0 6
5 10 10 10 6 0 10 -4 10 -10z m-40 -30 c0 -5 -2 -10 -4 -10 -3 0 -8 5 -11 10
-3 6 -1 10 4 10 6 0 11 -4 11 -10z m-95 -20 c-3 -5 -12 -10 -18 -10 -7 0 -6 4
3 10 19 12 23 12 15 0z m-415 -20 c0 -11 -4 -20 -10 -20 -5 0 -10 9 -10 20 0
11 5 20 10 20 6 0 10 -9 10 -20z m43 -3 c4 3 7 -6 7 -20 0 -15 -4 -27 -10 -27
-5 0 -10 5 -10 10 0 6 -4 10 -10 10 -15 0 -7 -24 10 -32 12 -5 11 -7 -4 -7
-12 -1 -16 -6 -12 -16 3 -8 1 -15 -5 -15 -6 0 -8 13 -5 30 2 19 0 30 -7 31 -8
0 -8 2 1 6 6 2 12 17 12 31 1 25 2 25 14 10 7 -10 16 -15 19 -11z m-58 -68
c-5 -7 -11 -6 -21 2 -12 10 -13 8 -5 -14 6 -15 6 -29 2 -32 -9 -5 -21 24 -27
65 -2 16 0 20 5 12 6 -11 10 -10 15 4 6 16 8 16 22 -4 8 -12 12 -27 9 -33z
m-68 -21 c-3 -7 -5 -2 -5 12 0 14 2 19 5 13 2 -7 2 -19 0 -25z m-151 -43 c1
-8 -4 -11 -12 -8 -15 6 -18 16 -7 26 8 9 16 1 19 -18z m114 -5 c0 -5 -4 -10
-10 -10 -5 0 -10 5 -10 10 0 6 5 10 10 10 6 0 10 -4 10 -10z m100 0 c0 -5 -4
-10 -10 -10 -5 0 -10 5 -10 10 0 6 5 10 10 10 6 0 10 -4 10 -10z m-65 -10 c3
-5 1 -10 -4 -10 -6 0 -11 5 -11 10 0 6 2 10 4 10 3 0 8 -4 11 -10z m-85 -36
c0 -8 -19 -13 -24 -6 -3 5 1 9 9 9 8 0 15 -2 15 -3z m2647 -36 c-3 -8 -6 -5
-6 6 -1 11 2 17 5 13 3 -3 4 -12 1 -19z m3 -22 c0 -3 -4 -8 -10 -11 -5 -3 -10
-1 -10 4 0 6 5 11 10 11 6 0 10 -2 10 -4z m-29 -49 c-10 -9 -11 -8 -5 6 3 10
9 15 12 12 3 -3 0 -11 -7 -18z m-2857 -27 c18 -44 21 -70 8 -54 -15 16 -42 94
-33 94 5 0 16 -18 25 -40z m2866 -12 c0 -4 -4 -8 -9 -8 -6 0 -12 4 -15 8 -3 5
1 9 9 9 8 0 15 -4 15 -9z m-2900 -18 c0 -5 -5 -10 -11 -10 -5 0 -7 5 -4 10 3
6 8 10 11 10 2 0 4 -4 4 -10z m12967 -50 c-1 -23 -26 -35 -40 -21 -7 7 -6 15
3 26 18 21 39 19 37 -5z m-13504 -113 c3 -8 -1 -14 -8 -14 -7 0 -11 6 -8 14 3
7 6 13 8 13 2 0 5 -6 8 -13z m13910 -3 c8 -8 -3 -34 -14 -34 -5 0 -9 9 -9 20
0 19 11 26 23 14z m-13583 -46 c0 -4 -4 -8 -10 -8 -5 0 -10 4 -10 9 0 5 -3 18
-6 28 -5 16 -4 16 10 -1 9 -11 16 -23 16 -28z m13485 -56 c-3 -3 -11 0 -18 7
-9 10 -8 11 6 5 10 -3 15 -9 12 -12z m-14005 -172 c-6 -11 -13 -20 -16 -20 -2
0 0 9 6 20 6 11 13 20 16 20 2 0 0 -9 -6 -20z m14124 -70 c48 -62 44 -80 -7
-32 l-29 27 13 -30 c8 -16 16 -32 19 -35 3 -3 6 -13 8 -22 3 -21 -27 -24 -48
-5 -8 7 -7 1 3 -15 11 -18 13 -28 6 -28 -6 0 -9 -7 -5 -15 7 -18 -15 -20 -33
-2 -10 10 -11 7 -7 -15 2 -15 8 -33 11 -40 4 -7 -4 -1 -17 15 -13 15 -26 27
-29 27 -11 0 -6 -36 8 -52 10 -11 11 -18 4 -23 -6 -3 -11 -1 -11 5 0 6 -11 16
-25 22 -14 6 -21 14 -16 17 5 4 3 16 -5 31 l-14 25 4 -27 c3 -17 0 -28 -7 -28
-7 0 -6 -4 3 -10 8 -5 16 -14 16 -20 1 -5 2 -11 4 -12 8 -10 6 -39 -2 -45 -7
-3 -8 -1 -4 5 4 7 2 12 -4 12 -6 0 -9 4 -5 9 3 5 -3 12 -13 15 -10 4 -29 25
-42 48 -20 36 -21 41 -5 34 16 -6 16 -4 4 11 -10 12 -11 15 -1 9 13 -8 52 27
52 46 0 5 4 6 10 3 5 -3 7 0 4 8 -3 8 2 20 11 27 8 7 15 19 15 26 0 8 9 19 20
26 11 7 20 19 20 26 0 10 5 10 22 -2 28 -20 60 -23 36 -3 -8 6 -18 20 -21 30
-12 34 12 16 57 -43z m-13844 5 c0 -15 -21 -12 -30 5 -11 20 -10 21 9 10 12
-6 21 -13 21 -15z m10533 -203 c-4 -18 -8 -20 -19 -11 -12 10 -11 14 3 24 22
16 24 15 16 -13z m3082 -30 c-8 -8 -25 10 -19 20 4 6 9 5 15 -3 4 -7 6 -15 4
-17z m12 -32 c10 -12 12 -12 13 -1 0 11 3 11 15 1 21 -18 19 -30 -7 -31 l-23
0 23 -9 c27 -12 29 -20 2 -15 -30 6 -40 14 -34 28 2 7 -6 22 -18 33 -23 19
-23 19 -7 -1 9 -11 17 -27 17 -35 0 -8 3 -27 6 -42 5 -22 3 -26 -9 -22 -9 4
-13 9 -10 12 2 3 -6 20 -20 38 -31 40 -32 54 -4 28 l22 -19 -17 33 c-10 19
-12 32 -6 32 6 0 8 6 4 13 -9 14 35 -21 53 -43z m-10526 13 c-12 -20 -14 -14
-5 12 4 9 9 14 11 11 3 -2 0 -13 -6 -23z m10483 -92 c-4 -3 -9 -1 -11 6 -2 7
-10 11 -16 9 -7 -1 -9 -1 -4 1 4 3 4 10 0 16 -3 7 3 3 15 -7 12 -11 19 -22 16
-25z m-49 -10 c3 -6 14 -8 24 -6 11 2 27 -5 37 -16 10 -11 12 -19 6 -19 -7 0
-12 6 -12 13 0 9 -3 8 -9 -2 -6 -9 -11 -10 -15 -2 -4 6 -10 10 -14 8 -4 -2
-20 10 -37 26 -23 22 -25 26 -8 18 12 -6 24 -15 28 -20z m-13995 -5 c0 -7 -7
-19 -15 -26 -8 -7 -15 -18 -15 -24 0 -29 -44 -155 -56 -160 -14 -6 -12 19 6
69 4 11 7 22 6 25 0 3 7 18 17 33 10 15 15 32 12 37 -3 6 -1 10 5 10 6 0 8 5
5 10 -7 12 12 40 26 40 5 0 9 -6 9 -14z m13990 -31 c13 -14 21 -25 18 -25 -2
0 -15 11 -28 25 -13 14 -21 25 -18 25 2 0 15 -11 28 -25z m-65 -25 c10 -11 16
-20 13 -20 -3 0 -13 9 -23 20 -10 11 -16 20 -13 20 3 0 13 -9 23 -20z m-1255
-10 c0 -5 -2 -10 -4 -10 -3 0 -8 5 -11 10 -3 6 -1 10 4 10 6 0 11 -4 11 -10z
m1308 -2 c-2 -6 8 -14 21 -17 25 -7 42 -31 21 -31 -6 0 -8 -6 -5 -12 4 -7 -7
2 -24 20 -18 18 -29 37 -26 42 8 14 16 12 13 -2z m88 -9 c19 -22 19 -22 -3
-10 -13 6 -23 16 -23 21 0 15 5 12 26 -11z m-172 -58 c-2 -3 -12 3 -22 13 -16
17 -16 18 5 5 12 -7 20 -15 17 -18z m-14646 -51 c-7 -11 -19 -20 -25 -20 -11
0 -11 4 -1 20 7 11 19 20 25 20 11 0 11 -4 1 -20z m14716 -19 c15 -16 23 -32
18 -35 -11 -7 -87 22 -79 30 3 3 14 1 25 -5 28 -15 35 -2 9 20 -12 10 -17 18
-11 19 5 0 23 -13 38 -29z m-13804 -41 c0 -5 4 -10 9 -10 5 0 23 -13 41 -30
29 -27 26 -44 -3 -20 -62 49 -78 70 -57 70 6 0 10 -4 10 -10z m-757 -34 c4 -9
-2 -17 -14 -21 -25 -8 -31 -3 -23 19 8 20 30 21 37 2z m478 -29 c-13 -13 -15
1 -4 30 7 17 8 17 11 -1 2 -10 -1 -23 -7 -29z m-741 13 c0 -10 -79 -34 -87
-26 -3 3 0 7 8 9 12 4 69 23 77 26 1 1 2 -3 2 -9z m719 -94 c-9 -8 -10 -7 -5
7 3 10 7 24 7 30 1 7 3 4 6 -7 3 -10 -1 -23 -8 -30z m9756 -123 c0 -6 3 -15 7
-18 8 -8 -34 -45 -50 -45 -5 0 -20 -15 -32 -32 -19 -29 -80 -68 -105 -68 -13
0 -65 52 -65 65 0 7 42 31 93 54 50 24 99 47 107 51 20 12 45 8 45 -7z m-658
-35 c-3 -8 -6 -5 -6 6 -1 11 2 17 5 13 3 -3 4 -12 1 -19z m924 -144 c31 -9 65
-27 81 -44 l28 -29 -38 6 c-20 4 -43 13 -51 20 -7 8 -16 12 -18 9 -9 -8 8 -27
34 -37 13 -5 22 -13 19 -17 -3 -5 4 -15 15 -22 10 -8 19 -21 19 -30 0 -9 7
-25 15 -37 l15 -21 -57 13 c-55 13 -84 12 -49 -1 9 -3 16 -11 16 -16 0 -5 18
-27 41 -47 39 -37 40 -39 17 -44 -13 -4 -25 -2 -27 4 -2 6 -13 15 -25 20 -34
16 -68 37 -75 46 -9 12 -106 58 -168 79 -55 19 -76 51 -28 42 13 -3 22 -2 20
3 -3 4 -23 10 -45 14 -30 5 -44 3 -56 -9 -13 -14 -14 -16 0 -16 35 0 157 -145
172 -203 3 -15 9 -27 13 -27 3 0 4 -27 3 -61 -4 -61 -4 -61 -23 -40 -25 26
-29 26 -22 0 5 -16 2 -20 -12 -18 -12 3 -22 24 -35 75 -16 62 -44 125 -112
247 -16 28 -16 31 -1 42 11 9 13 14 5 19 -7 4 -16 4 -22 1 -5 -3 -10 1 -10 9
0 9 -6 15 -12 14 -7 -2 -13 4 -13 12 0 8 5 15 10 15 6 0 15 3 21 7 17 11 147
30 169 24 11 -3 27 -1 35 4 23 15 90 12 151 -6z m-6018 -36 c27 -14 12 -26
-41 -33 -105 -13 -178 -29 -193 -42 -22 -19 -27 -16 -21 12 2 14 -1 32 -8 40
-14 17 -2 21 105 34 73 9 127 5 158 -11z m-3748 -86 c-3 -3 -11 0 -18 7 -9 10
-8 11 6 5 10 -3 15 -9 12 -12z m-445 -77 c-13 -14 -26 -23 -28 -20 -7 7 29 45
41 45 6 0 0 -11 -13 -25z m14011 -35 c5 0 9 -4 9 -9 0 -12 -38 -2 -47 12 -4 7
0 8 11 4 10 -4 22 -7 27 -7z m-14081 -85 c-7 -9 -15 -13 -18 -10 -3 2 1 11 8
20 7 9 15 13 18 10 3 -2 -1 -11 -8 -20z m9475 -275 c-3 -5 -10 -10 -16 -10 -5
0 -9 5 -9 10 0 6 7 10 16 10 8 0 12 -4 9 -10z m-4270 -399 c3 -5 1 -12 -5 -16
-5 -3 -10 1 -10 9 0 18 6 21 15 7z m-5975 -91 c18 -12 2 -12 -25 0 -13 6 -15
9 -5 9 8 0 22 -4 30 -9z m-270 -79 c0 -24 -25 -34 -40 -16 -10 12 -8 17 11 24
13 5 25 10 27 10 1 1 2 -8 2 -18z m254 -147 c11 -4 16 -19 16 -44 0 -37 -1
-38 -27 -31 -16 4 -30 16 -32 26 -3 17 -1 18 13 6 15 -13 16 -11 6 13 -15 40
-11 44 24 30z m6296 -47 c9 -7 31 -48 50 -92 19 -43 61 -117 93 -164 48 -73
57 -92 57 -131 0 -34 9 -59 36 -103 22 -36 39 -78 43 -110 4 -29 21 -79 38
-112 44 -87 47 -108 24 -160 -25 -56 -71 -86 -126 -83 -49 4 -65 29 -65 110 0
46 5 62 25 86 14 17 25 34 25 40 0 15 -23 30 -52 36 -14 2 -37 10 -50 17 -12
7 -37 12 -54 10 -38 -3 -43 11 -45 124 -1 102 -9 129 -37 133 -32 5 -38 57
-17 137 13 47 16 79 10 117 -10 68 -9 97 4 131 12 30 19 32 41 14z m-6640
-101 c0 -2 -9 -6 -20 -9 -11 -3 -18 -1 -14 4 5 9 34 13 34 5z m130 -41 c0 -9
-6 -12 -15 -9 -8 4 -12 10 -9 15 8 14 24 10 24 -6z m4693 -9 c6 -15 -19 -56
-34 -56 -12 0 -11 12 1 44 10 29 25 34 33 12z m-3433 -157 c0 -5 -9 -9 -20 -9
-19 0 -27 20 -13 33 7 8 33 -11 33 -24z m-50 11 c0 -5 -2 -10 -4 -10 -3 0 -8
5 -11 10 -3 6 -1 10 4 10 6 0 11 -4 11 -10z m32 -58 c-27 -4 -37 2 -27 17 4 8
13 7 28 -1 l22 -13 -23 -3z m-1154 -36 c72 -46 87 -67 83 -113 0 -7 -10 -13
-22 -13 -11 0 -18 4 -15 9 3 5 -19 33 -49 62 -76 74 -74 104 3 55z m-28 -91
c0 -8 -4 -15 -10 -15 -5 0 -10 -9 -10 -20 0 -11 -7 -20 -15 -20 -17 0 -20 16
-5 25 6 3 10 15 10 26 0 10 7 19 15 19 8 0 15 -7 15 -15z m56 -51 c-4 -9 -9
-15 -11 -12 -3 3 -3 13 1 22 4 9 9 15 11 12 3 -3 3 -13 -1 -22z m6359 -122
c14 -66 14 -64 -1 -51 -19 15 -29 36 -38 72 -6 26 -5 27 14 17 11 -6 22 -23
25 -38z m-6537 13 c2 -10 -2 -29 -10 -43 l-13 -25 -5 34 c-4 19 -4 40 -2 47 6
18 26 9 30 -13z"/>
<path d="M9335 8680 c3 -5 8 -10 11 -10 2 0 4 5 4 10 0 6 -5 10 -11 10 -5 0
-7 -4 -4 -10z"/>
<path d="M9355 8660 c-3 -6 1 -7 9 -4 18 7 21 14 7 14 -6 0 -13 -4 -16 -10z"/>
<path d="M7069 8643 c-13 -16 -12 -17 4 -4 9 7 17 15 17 17 0 8 -8 3 -21 -13z"/>
<path d="M7945 8590 c-27 -30 -12 -34 15 -5 13 14 19 25 13 25 -5 0 -18 -9
-28 -20z"/>
<path d="M7395 8580 c-3 -5 -4 -14 -1 -19 3 -4 -8 -23 -24 -41 -17 -19 -28
-35 -25 -38 2 -2 16 9 30 26 14 17 31 30 38 28 7 -1 9 -1 4 1 -4 3 -5 9 -1 14
3 5 1 9 -5 9 -6 0 -8 7 -5 15 7 17 -1 20 -11 5z"/>
<path d="M9050 8571 c0 -6 4 -13 10 -16 6 -3 7 1 4 9 -7 18 -14 21 -14 7z"/>
<path d="M9015 8560 c-3 -5 1 -10 10 -10 9 0 13 5 10 10 -3 6 -8 10 -10 10 -2
0 -7 -4 -10 -10z"/>
<path d="M6916 8525 c-3 -8 -1 -15 4 -15 6 0 10 7 10 15 0 8 -2 15 -4 15 -2 0
-6 -7 -10 -15z"/>
<path d="M6857 8471 c-3 -13 -1 -18 9 -14 7 2 10 11 7 19 -7 19 -10 18 -16 -5z"/>
<path d="M6526 7835 c-9 -26 -7 -32 5 -12 6 10 9 21 6 23 -2 3 -7 -2 -11 -11z"/>
<path d="M9650 7474 c0 -8 5 -12 10 -9 6 4 8 11 5 16 -9 14 -15 11 -15 -7z"/>
<path d="M9746 7421 c-3 -5 1 -11 9 -15 8 -3 15 -1 15 4 0 13 -18 22 -24 11z"/>
<path d="M6519 7364 c-9 -30 2 -42 31 -33 23 6 23 7 3 8 -14 1 -23 8 -25 24
-3 22 -3 22 -9 1z"/>
<path d="M6537 7271 c-4 -17 -3 -21 5 -13 5 5 8 16 6 23 -3 8 -7 3 -11 -10z"/>
<path d="M9260 7239 c0 -8 -11 -9 -31 -5 -25 5 -30 3 -26 -9 4 -10 1 -12 -10
-8 -11 4 -14 2 -9 -5 9 -15 1 -15 -25 -2 -10 6 -19 7 -19 2 0 -15 -90 -50
-145 -57 -59 -8 -127 -34 -119 -47 3 -5 15 -6 27 -3 19 5 19 4 -3 -9 -22 -13
-23 -15 -8 -21 16 -6 16 -9 2 -22 -11 -12 -12 -18 -3 -29 9 -11 8 -18 -5 -32
-21 -24 -20 -33 2 -25 15 6 15 5 3 -10 -7 -9 -17 -14 -22 -12 -12 8 -48 -17
-43 -30 3 -6 -11 -33 -31 -60 -33 -48 -46 -95 -25 -95 5 0 7 -6 4 -14 -3 -8 3
-19 14 -25 11 -6 23 -22 26 -37 5 -18 12 -24 22 -20 9 3 22 6 30 6 11 0 13 4
6 17 -7 11 -6 25 1 41 l11 24 26 -32 27 -33 99 -1 c54 0 102 -5 106 -10 4 -6
23 -3 50 7 24 9 52 17 61 17 10 0 29 7 43 16 17 12 64 19 161 26 110 7 141 13
161 29 14 10 23 20 21 20 -2 1 -14 3 -25 4 -12 1 -34 5 -50 9 -24 6 -27 9 -14
19 8 7 20 27 27 45 9 27 9 32 -4 32 -9 0 -13 6 -9 15 3 10 -1 15 -13 15 -11 0
-22 -6 -24 -12 -3 -8 -6 -6 -6 5 -1 16 -5 19 -33 21 -13 1 -25 9 -51 32 -7 6
-26 11 -42 11 -17 0 -61 3 -100 8 -38 4 -87 7 -107 6 -27 0 -38 4 -38 14 0 12
-6 11 -33 -4 -43 -24 -97 -36 -97 -22 0 6 9 11 20 11 11 0 20 7 20 15 0 8 7
15 15 15 8 0 23 8 33 18 50 46 84 57 192 57 84 1 107 -2 117 -14 8 -12 33 -17
100 -19 48 -1 100 -5 116 -8 21 -5 27 -3 27 10 0 9 5 16 10 16 24 0 7 20 -33
39 -47 23 -61 26 -52 12 3 -6 -10 -8 -32 -5 l-38 4 32 -12 c39 -16 52 -28 29
-28 -11 0 -15 -5 -10 -12 4 -7 -1 -6 -12 3 -10 9 -25 14 -31 12 -7 -3 -13 0
-13 6 0 6 -15 12 -32 12 -18 1 -25 3 -15 6 23 6 22 23 -3 23 -11 0 -20 5 -20
10 0 6 -5 10 -11 10 -6 0 -30 16 -53 35 -42 34 -63 45 -51 25 9 -15 -7 -12
-29 5 -24 18 -36 19 -36 4z m120 -59 c8 -5 11 -10 5 -10 -5 0 -17 5 -25 10 -8
5 -10 10 -5 10 6 0 17 -5 25 -10z m88 -87 c-10 -2 -26 -2 -35 0 -10 3 -2 5 17
5 19 0 27 -2 18 -5z m-418 -261 c0 -19 -18 -42 -32 -42 -4 0 -7 3 -7 8 4 21
-2 32 -13 27 -7 -4 -4 1 6 9 26 21 46 20 46 -2z m224 -49 c-1 -22 2 -31 10
-27 6 3 2 -2 -8 -10 -24 -20 -56 -21 -56 -2 0 7 3 28 6 45 5 25 11 31 28 29
17 -2 21 -9 20 -35z"/>
<path d="M7646 7153 c-2 -2 -24 -5 -49 -7 -25 -1 -57 -10 -72 -20 -15 -10 -32
-15 -39 -13 -7 3 -19 1 -27 -4 -9 -5 7 -8 45 -8 32 1 61 -3 65 -7 3 -5 28 -10
55 -12 27 -1 56 -7 63 -14 11 -9 16 -9 22 0 4 7 15 10 24 6 23 -9 21 9 -3 26
-28 20 -25 32 8 28 19 -2 26 -8 24 -20 -2 -12 4 -18 17 -18 11 0 21 -6 24 -12
2 -7 8 -10 12 -6 5 5 0 17 -10 28 -18 19 -17 20 2 20 11 0 32 -9 46 -20 30
-23 47 -26 47 -6 0 8 -13 17 -30 21 -16 4 -32 10 -35 15 -3 5 9 5 27 -1 42
-12 44 -11 30 3 -7 7 -44 11 -102 11 -50 -1 -88 2 -85 7 5 8 -51 11 -59 3z"/>
<path d="M7936 7105 c10 -8 23 -15 28 -15 6 0 1 7 -10 15 -10 8 -23 15 -28 15
-6 0 -1 -7 10 -15z"/>
<path d="M870 7059 c0 -5 5 -7 10 -4 6 3 10 8 10 11 0 2 -4 4 -10 4 -5 0 -10
-5 -10 -11z"/>
<path d="M7320 7054 l-45 -14 45 6 c43 5 58 10 49 17 -2 2 -24 -2 -49 -9z"/>
<path d="M7760 7066 c0 -2 7 -6 15 -10 8 -3 15 -1 15 4 0 6 -7 10 -15 10 -8 0
-15 -2 -15 -4z"/>
<path d="M910 7050 c0 -5 5 -10 10 -10 6 0 10 5 10 10 0 6 -4 10 -10 10 -5 0
-10 -4 -10 -10z"/>
<path d="M9546 7051 c-4 -7 -5 -15 -2 -18 9 -9 19 4 14 18 -4 11 -6 11 -12 0z"/>
<path d="M9575 7050 c3 -5 8 -10 11 -10 2 0 4 5 4 10 0 6 -5 10 -11 10 -5 0
-7 -4 -4 -10z"/>
<path d="M9580 7010 c0 -13 11 -13 30 0 12 8 11 10 -7 10 -13 0 -23 -4 -23
-10z"/>
<path d="M990 6990 c0 -5 5 -10 11 -10 5 0 7 5 4 10 -3 6 -8 10 -11 10 -2 0
-4 -4 -4 -10z"/>
<path d="M3416 6975 c-3 -8 -3 -15 0 -15 3 0 12 7 20 15 13 13 13 15 1 15 -8
0 -17 -7 -21 -15z"/>
<path d="M1185 6960 c-3 -5 -1 -10 4 -10 6 0 11 5 11 10 0 6 -2 10 -4 10 -3 0
-8 -4 -11 -10z"/>
<path d="M7635 6910 c-3 -6 -17 -8 -30 -6 -22 4 -130 -42 -144 -62 -4 -4 -25
-24 -49 -44 -23 -21 -39 -38 -35 -38 5 0 1 -4 -7 -10 -8 -5 -11 -12 -7 -16 4
-4 52 16 106 44 54 28 101 48 105 45 3 -3 6 -16 6 -27 0 -23 -41 -50 -94 -62
-16 -4 -37 -15 -47 -25 -11 -11 -28 -19 -40 -19 -26 0 -86 -48 -67 -54 73 -22
117 -28 171 -23 79 8 170 -11 162 -33 -5 -12 -4 -13 6 -2 14 13 63 17 55 3 -3
-4 25 -6 62 -4 75 5 91 17 113 88 7 22 14 43 16 47 7 13 34 -4 56 -36 14 -20
32 -32 50 -34 35 -4 34 7 -3 43 -36 35 -43 70 -7 38 43 -39 50 -37 26 6 -56
100 -170 171 -284 177 -38 3 -80 6 -92 9 -12 3 -25 1 -28 -5z m100 -64 c18
-13 18 -14 -8 -9 -15 3 -27 9 -27 14 0 13 13 11 35 -5z m-68 -21 c-23 -20 -32
-23 -48 -15 -37 20 -18 37 46 39 l30 0 -28 -24z m91 -92 c2 -14 -4 -26 -17
-33 -18 -9 -21 -8 -21 10 0 11 -5 20 -11 20 -8 0 -7 5 1 15 18 21 44 15 48
-12z"/>
<path d="M2120 6800 c0 -5 5 -10 11 -10 5 0 7 5 4 10 -3 6 -8 10 -11 10 -2 0
-4 -4 -4 -10z"/>
<path d="M9856 6693 c-4 -9 -2 -21 4 -27 7 -7 10 -2 10 17 0 31 -5 34 -14 10z"/>
<path d="M3200 6645 c0 -5 5 -17 10 -25 5 -8 10 -10 10 -5 0 6 -5 17 -10 25
-5 8 -10 11 -10 5z"/>
<path d="M7565 6600 c27 -12 43 -12 25 0 -8 5 -22 9 -30 9 -10 0 -8 -3 5 -9z"/>
<path d="M5153 6303 c9 -2 25 -2 35 0 9 3 1 5 -18 5 -19 0 -27 -2 -17 -5z"/>
<path d="M4856 6289 c3 -5 24 -9 46 -9 51 0 47 5 -10 13 -24 3 -40 1 -36 -4z"/>
<path d="M5058 6293 c7 -3 16 -2 19 1 4 3 -2 6 -13 5 -11 0 -14 -3 -6 -6z"/>
<path d="M4977 6274 c3 -7 9 -14 14 -14 14 0 10 17 -5 23 -10 4 -13 1 -9 -9z"/>
<path d="M4785 6241 c-46 -8 -68 -22 -57 -33 8 -8 15 -8 27 2 8 7 39 14 68 16
28 1 63 7 77 12 20 8 13 10 -35 9 -33 -1 -69 -4 -80 -6z"/>
<path d="M6682 6230 c0 -14 2 -19 5 -12 2 6 2 18 0 25 -3 6 -5 1 -5 -13z"/>
<path d="M4650 6195 c-25 -10 -29 -14 -14 -14 11 -1 29 6 40 14 23 17 19 17
-26 0z"/>
<path d="M4550 6140 c-8 -5 -10 -10 -5 -10 6 0 17 5 25 10 8 5 11 10 5 10 -5
0 -17 -5 -25 -10z"/>
<path d="M6528 6143 c7 -3 16 -2 19 1 4 3 -2 6 -13 5 -11 0 -14 -3 -6 -6z"/>
<path d="M6396 6107 c2 -7 18 -21 35 -31 30 -18 30 -18 18 2 -15 24 -61 49
-53 29z"/>
<path d="M6650 6103 c0 -4 11 -21 24 -38 26 -32 45 -30 27 4 -12 21 -51 48
-51 34z"/>
<path d="M5987 6024 c-3 -4 -2 -16 4 -26 8 -15 14 -17 22 -9 8 8 7 15 -4 26
-8 9 -18 13 -22 9z"/>
<path d="M9745 6000 c-3 -5 -1 -10 4 -10 6 0 11 5 11 10 0 6 -2 10 -4 10 -3 0
-8 -4 -11 -10z"/>
<path d="M8729 5972 c-19 -9 -64 -43 -99 -75 -58 -52 -61 -57 -37 -57 14 0 28
4 31 8 2 4 19 9 38 10 18 1 44 11 58 22 14 11 47 32 73 47 30 17 47 32 45 42
-4 22 -65 24 -109 3z"/>
<path d="M4462 5948 c6 -18 28 -21 28 -4 0 9 -7 16 -16 16 -9 0 -14 -5 -12
-12z"/>
<path d="M8232 5938 c-21 -21 -13 -37 21 -42 87 -12 175 -26 202 -31 l30 -6
-30 25 c-49 42 -107 66 -161 66 -28 0 -55 -5 -62 -12z"/>
<path d="M4426 5841 c-4 -5 3 -7 14 -4 23 6 26 13 6 13 -8 0 -17 -4 -20 -9z"/>
<path d="M9804 5766 c5 -38 12 -53 21 -45 2 3 -3 23 -11 44 l-15 40 5 -39z"/>
<path d="M9199 5672 c-7 -21 -30 -40 -87 -73 -105 -60 -114 -62 -207 -40 -87
21 -160 29 -171 19 -3 -4 -11 -4 -18 -2 -7 3 -26 0 -42 -6 -16 -7 -81 -16
-144 -21 -201 -15 -243 -24 -342 -70 -82 -39 -101 -44 -163 -44 -47 1 -81 6
-102 18 -28 15 -42 16 -94 8 -89 -15 -106 -34 -70 -80 18 -24 20 -24 73 -12
42 10 67 11 118 2 36 -7 92 -16 125 -21 62 -10 255 -23 314 -21 18 1 40 -4 47
-10 8 -6 33 -8 66 -4 30 4 65 2 80 -4 17 -6 38 -7 59 -1 32 10 84 12 164 8 22
-1 64 7 93 16 29 10 55 16 56 15 11 -14 -33 -76 -81 -114 -98 -76 -144 -89
-312 -87 -112 1 -142 -1 -133 -10 19 -19 14 -27 -20 -30 -29 -3 -26 -5 27 -18
33 -7 62 -17 65 -20 8 -10 89 -19 92 -10 3 7 48 16 131 26 22 2 67 15 101 29
35 14 66 25 69 25 16 0 77 46 77 58 0 6 6 12 13 12 19 0 39 38 29 57 -6 11
-11 12 -16 4 -4 -6 -11 -11 -17 -11 -13 0 34 91 60 114 11 10 27 16 36 13 8
-4 15 -2 15 2 0 16 67 52 83 45 9 -3 22 -16 30 -28 10 -14 25 -22 43 -21 l29
0 -3 78 c-1 47 2 77 8 77 5 0 10 8 10 19 0 10 18 33 39 52 41 34 44 49 10 49
-10 0 -19 4 -19 9 0 12 -27 22 -73 27 -34 5 -39 2 -48 -24z m-511 -185 c2 -10
-10 -30 -27 -46 -28 -26 -35 -28 -63 -20 -36 10 -49 25 -46 54 5 36 130 47
136 12z m-192 -11 c11 -29 -14 -54 -58 -58 -74 -8 -125 28 -83 58 26 19 134
19 141 0z m484 -236 c0 -5 -5 -10 -11 -10 -5 0 -7 5 -4 10 3 6 8 10 11 10 2 0
4 -4 4 -10z m-40 -25 c0 -8 -7 -15 -16 -15 -14 0 -14 3 -4 15 7 8 14 15 16 15
2 0 4 -7 4 -15z"/>
<path d="M7763 5611 c-13 -11 -27 -31 -33 -46 -13 -34 -13 -98 0 -90 6 3 10
15 10 26 0 10 4 19 8 19 6 0 33 45 60 103 7 14 -23 6 -45 -12z"/>
<path d="M6634 5582 c3 -6 -2 -13 -11 -15 -16 -4 -16 -5 -1 -6 21 -1 32 15 17
25 -7 4 -9 3 -5 -4z"/>
<path d="M6659 5563 c-13 -16 -12 -17 4 -4 9 7 17 15 17 17 0 8 -8 3 -21 -13z"/>
<path d="M6624 5525 c-3 -8 -4 -20 -1 -27 3 -8 6 -6 6 5 1 10 5 15 11 12 6 -3
7 1 4 9 -8 20 -13 20 -20 1z"/>
<path d="M6588 5523 c7 -3 16 -2 19 1 4 3 -2 6 -13 5 -11 0 -14 -3 -6 -6z"/>
<path d="M6692 5515 c9 -10 21 -16 28 -13 7 2 -1 10 -16 17 -27 12 -28 11 -12
-4z"/>
<path d="M6765 5510 c-3 -5 1 -10 9 -10 9 0 16 5 16 10 0 6 -4 10 -9 10 -6 0
-13 -4 -16 -10z"/>
<path d="M6545 5500 c-3 -5 -1 -10 4 -10 6 0 11 5 11 10 0 6 -2 10 -4 10 -3 0
-8 -4 -11 -10z"/>
<path d="M6580 5494 c0 -8 5 -12 10 -9 6 3 10 10 10 16 0 5 -4 9 -10 9 -5 0
-10 -7 -10 -16z"/>
<path d="M6708 5483 c6 -3 12 -11 12 -19 0 -8 8 -14 18 -14 13 0 14 2 3 9 -7
5 -11 13 -8 18 3 5 -4 9 -16 10 -12 0 -16 -1 -9 -4z"/>
<path d="M6876 5482 c-3 -5 1 -9 9 -9 8 0 12 4 9 9 -3 4 -7 8 -9 8 -2 0 -6 -4
-9 -8z"/>
<path d="M6714 5428 c-4 -7 -4 -10 1 -6 4 4 15 2 24 -5 14 -11 14 -10 2 6 -16
20 -18 21 -27 5z"/>
<path d="M9055 5360 c-3 -5 1 -10 9 -10 8 0 18 5 21 10 3 6 -1 10 -9 10 -8 0
-18 -4 -21 -10z"/>
<path d="M9294 5339 c-3 -6 -2 -15 4 -21 7 -7 14 -3 21 11 10 17 9 21 -3 21
-8 0 -18 -5 -22 -11z"/>
<path d="M9032 5299 c-7 -11 -9 -25 -5 -32 4 -7 10 0 15 18 9 36 6 40 -10 14z"/>
<path d="M14091 6954 c0 -11 3 -14 6 -6 3 7 2 16 -1 19 -3 4 -6 -2 -5 -13z"/>
<path d="M13636 6903 c-6 -14 -5 -15 5 -6 7 7 10 15 7 18 -3 3 -9 -2 -12 -12z"/>
<path d="M13990 6905 c0 -10 29 -24 34 -17 3 6 -3 12 -14 15 -11 3 -20 4 -20
2z"/>
<path d="M13970 6880 c0 -5 5 -10 10 -10 6 0 10 5 10 10 0 6 -4 10 -10 10 -5
0 -10 -4 -10 -10z"/>
<path d="M13514 6849 c-3 -6 -1 -16 6 -22 10 -9 11 -9 5 2 -4 8 -2 17 6 22 9
6 10 9 2 9 -6 0 -15 -5 -19 -11z"/>
<path d="M13431 6824 c0 -11 3 -14 6 -6 3 7 2 16 -1 19 -3 4 -6 -2 -5 -13z"/>
<path d="M13255 6820 c-3 -6 1 -7 9 -4 18 7 21 14 7 14 -6 0 -13 -4 -16 -10z"/>
<path d="M13346 6782 c-3 -5 1 -9 9 -9 8 0 15 4 15 9 0 4 -4 8 -9 8 -6 0 -12
-4 -15 -8z"/>
<path d="M13301 6764 c0 -11 3 -14 6 -6 3 7 2 16 -1 19 -3 4 -6 -2 -5 -13z"/>
<path d="M13305 6700 c3 -5 11 -10 16 -10 6 0 7 5 4 10 -3 6 -11 10 -16 10 -6
0 -7 -4 -4 -10z"/>
<path d="M11665 6640 c-3 -5 1 -10 9 -10 9 0 16 5 16 10 0 6 -4 10 -9 10 -6 0
-13 -4 -16 -10z"/>
<path d="M11764 6632 c3 -5 0 -13 -6 -15 -9 -4 -10 -6 -1 -6 17 -1 25 16 12
25 -7 4 -9 3 -5 -4z"/>
<path d="M11815 6620 c3 -5 8 -10 11 -10 2 0 4 5 4 10 0 6 -5 10 -11 10 -5 0
-7 -4 -4 -10z"/>
<path d="M11871 6614 c0 -11 3 -14 6 -6 3 7 2 16 -1 19 -3 4 -6 -2 -5 -13z"/>
<path d="M11950 6619 c0 -5 5 -7 10 -4 6 3 10 8 10 11 0 2 -4 4 -10 4 -5 0
-10 -5 -10 -11z"/>
<path d="M12191 6604 c0 -11 3 -14 6 -6 3 7 2 16 -1 19 -3 4 -6 -2 -5 -13z"/>
<path d="M12845 6609 c-4 -6 -5 -12 -2 -15 2 -3 7 2 10 11 7 17 1 20 -8 4z"/>
<path d="M12737 6589 c8 -8 16 -8 30 0 16 9 14 10 -11 11 -22 0 -27 -3 -19
-11z"/>
<path d="M10415 5580 c-3 -5 -1 -10 4 -10 6 0 11 5 11 10 0 6 -2 10 -4 10 -3
0 -8 -4 -11 -10z"/>
<path d="M4405 4580 c-3 -6 1 -7 9 -4 18 7 21 14 7 14 -6 0 -13 -4 -16 -10z"/>
<path d="M4030 4666 c0 -8 7 -16 15 -20 13 -4 14 -2 5 14 -13 23 -20 26 -20 6z"/>
<path d="M4940 4600 c0 -5 5 -10 11 -10 5 0 7 5 4 10 -3 6 -8 10 -11 10 -2 0
-4 -4 -4 -10z"/>
<path d="M3235 4429 c-4 -6 -5 -12 -2 -15 2 -3 7 2 10 11 7 17 1 20 -8 4z"/>
<path d="M15835 3390 c3 -5 8 -10 11 -10 2 0 4 5 4 10 0 6 -5 10 -11 10 -5 0
-7 -4 -4 -10z"/>
<path d="M15570 2870 c0 -5 5 -10 11 -10 5 0 7 5 4 10 -3 6 -8 10 -11 10 -2 0
-4 -4 -4 -10z"/>
<path d="M7677 11082 c-23 -26 -22 -27 21 -26 54 2 54 2 42 24 -13 25 -42 26
-63 2z"/>
<path d="M7827 10751 c-44 -29 -44 -34 -2 -26 44 7 68 22 59 36 -8 13 -25 10
-57 -10z"/>
<path d="M58 9263 c7 -3 16 -2 19 1 4 3 -2 6 -13 5 -11 0 -14 -3 -6 -6z"/>
<path d="M50 9180 c0 -5 5 -10 11 -10 5 0 7 5 4 10 -3 6 -8 10 -11 10 -2 0 -4
-4 -4 -10z"/>
<path d="M124 9178 c13 -8 15 -13 5 -24 -9 -11 -8 -14 4 -14 8 0 17 11 19 24
4 20 1 24 -20 24 -21 0 -22 -2 -8 -10z"/>
<path d="M15643 8053 c-13 -2 -23 -9 -23 -14 0 -14 30 -11 46 6 9 8 12 14 7
14 -4 -1 -18 -4 -30 -6z"/>
<path d="M14888 7934 c144 -205 362 -425 362 -365 0 24 -337 384 -389 416 -8
5 4 -18 27 -51z"/>
<path d="M15555 7960 c-7 -22 -16 -25 -31 -10 -13 13 -61 -9 -67 -30 -3 -13 6
-15 46 -13 52 2 67 13 67 51 0 27 -7 28 -15 2z"/>
<path d="M15765 7620 c3 -5 13 -10 21 -10 8 0 14 5 14 10 0 6 -9 10 -21 10
-11 0 -17 -4 -14 -10z"/>
<path d="M15850 7545 c0 -8 -4 -15 -10 -15 -5 0 -10 -7 -10 -15 0 -8 5 -15 10
-15 6 0 10 7 10 15 0 8 7 15 15 15 8 0 15 7 15 15 0 8 -7 15 -15 15 -8 0 -15
-7 -15 -15z"/>
<path d="M15830 7479 c0 -5 9 -9 20 -9 11 0 20 2 20 4 0 2 -9 6 -20 9 -11 3
-20 1 -20 -4z"/>
<path d="M15535 7421 c-3 -5 -1 -12 5 -16 5 -3 10 1 10 9 0 18 -6 21 -15 7z"/>
<path d="M15910 7287 c0 -9 9 -21 21 -27 31 -17 33 -7 4 20 -20 19 -25 20 -25
7z"/>
<path d="M15618 7283 c-10 -2 -18 -9 -18 -14 0 -15 43 -7 48 9 4 12 0 13 -30
5z"/>
<path d="M15986 7243 c10 -40 14 -41 14 -5 0 18 -5 32 -10 32 -6 0 -8 -11 -4
-27z"/>
<path d="M15676 7205 c-3 -8 -1 -15 4 -15 6 0 10 7 10 15 0 8 -2 15 -4 15 -2
0 -6 -7 -10 -15z"/>
<path d="M15693 7008 c2 -7 10 -13 17 -13 7 0 15 6 18 13 2 7 -5 12 -18 12
-13 0 -20 -5 -17 -12z"/>
<path d="M15982 6755 c0 -11 3 -29 8 -40 11 -25 11 1 0 35 -6 20 -8 21 -8 5z"/>
<path d="M5381 3944 c0 -11 3 -14 6 -6 3 7 2 16 -1 19 -3 4 -6 -2 -5 -13z"/>
<path d="M5400 3935 c0 -8 2 -15 4 -15 2 0 6 7 10 15 3 8 1 15 -4 15 -6 0 -10
-7 -10 -15z"/>
<path d="M5358 3823 c7 -3 16 -2 19 1 4 3 -2 6 -13 5 -11 0 -14 -3 -6 -6z"/>
<path d="M5356 3771 c-4 -7 -5 -15 -2 -18 9 -9 19 4 14 18 -4 11 -6 11 -12 0z"/>
<path d="M4188 3689 c-146 -21 -414 -93 -441 -118 -4 -4 16 -34 44 -67 29 -32
105 -124 169 -204 65 -80 129 -156 143 -168 49 -45 138 -27 156 32 12 38 81
472 81 509 0 26 -2 27 -47 26 -27 -1 -74 -5 -105 -10z"/>
<path d="M4521 3678 c-5 -13 -32 -158 -60 -323 -28 -165 -60 -353 -72 -417
-23 -136 -18 -171 34 -240 99 -129 318 -133 415 -6 22 28 48 91 82 192 27 83
88 265 135 405 47 140 84 260 81 267 -11 28 -269 103 -445 130 -135 20 -160
19 -170 -8z"/>
<path d="M15897 3550 c-3 -11 0 -23 5 -27 7 -3 8 -1 4 5 -5 8 1 12 15 12 18 0
19 2 9 15 -17 20 -27 19 -33 -5z"/>
<path d="M3480 3444 c-103 -55 -228 -147 -335 -248 l-80 -76 30 -26 c57 -50
150 -131 200 -174 63 -54 331 -298 404 -368 85 -82 120 -97 221 -97 92 0 136
16 193 70 66 63 86 169 47 249 -41 84 -556 717 -583 715 -7 0 -50 -20 -97 -45z"/>
<path d="M2927 2958 c-43 -58 -113 -171 -147 -237 -26 -53 -100 -234 -100
-246 0 -9 638 -2 667 7 41 12 63 42 63 85 0 29 -13 44 -117 137 -210 188 -325
286 -334 286 -4 0 -19 -15 -32 -32z"/>
<path d="M5330 2574 c0 -8 5 -12 10 -9 6 4 8 11 5 16 -9 14 -15 11 -15 -7z"/>
<path d="M5310 2521 c0 -12 5 -21 10 -21 6 0 10 6 10 14 0 8 -4 18 -10 21 -5
3 -10 -3 -10 -14z"/>
<path d="M3138 2314 c-2 -2 -105 -4 -229 -4 -123 -1 -236 -4 -251 -7 -25 -5
-27 -9 -43 -119 -20 -128 -17 -383 5 -441 11 -31 13 -31 65 -28 62 4 130 13
200 26 28 5 75 11 105 14 30 2 125 13 210 24 85 11 223 27 305 35 133 14 157
19 215 48 73 37 112 85 132 160 16 61 0 144 -36 191 -35 46 -111 85 -177 92
-65 6 -496 14 -501 9z m402 -179 c0 -2 -10 -9 -22 -15 -22 -11 -22 -10 -4 4
21 17 26 19 26 11z m92 -67 c-6 -7 -25 -21 -42 -32 l-32 -18 12 21 c6 12 21
26 33 31 32 13 41 12 29 -2z"/>
<path d="M7300 1718 c0 -9 -7 -24 -16 -32 -15 -16 -11 -56 5 -56 14 0 31 84
21 94 -7 7 -10 4 -10 -6z"/>
<path d="M3875 1690 c-71 -11 -110 -39 -246 -178 -258 -265 -579 -616 -579
-633 0 -6 17 -26 38 -46 127 -120 262 -222 378 -285 80 -43 74 -45 131 38 90
129 280 394 437 608 104 142 125 181 133 245 10 90 -40 185 -118 227 -36 18
-125 31 -174 24z"/>
<path d="M3180 1614 c-47 -7 -105 -15 -130 -18 -25 -3 -99 -14 -165 -25 -66
-11 -139 -23 -162 -26 -24 -4 -45 -10 -47 -14 -14 -21 106 -313 144 -351 6 -6
25 -36 46 -75 9 -16 29 -42 44 -57 l27 -27 79 82 c44 46 103 109 132 141 29
33 97 105 151 161 115 119 127 150 80 197 -32 32 -60 34 -199 12z"/>
<path d="M6857 1523 c-11 -11 -8 -49 8 -86 8 -20 15 -53 15 -73 0 -30 9 -44
53 -88 28 -29 60 -65 71 -80 10 -15 37 -36 60 -45 22 -10 56 -30 73 -45 18
-15 37 -25 42 -22 10 6 31 93 31 126 0 15 -9 19 -46 22 -38 2 -51 8 -68 31
-22 30 -27 94 -12 155 12 44 -12 43 -63 -3 -21 -19 -43 -35 -48 -35 -21 0 -84
81 -90 115 -5 34 -13 42 -26 28z"/>
<path d="M5935 1390 c-3 -5 -1 -10 4 -10 6 0 11 5 11 10 0 6 -2 10 -4 10 -3 0
-8 -4 -11 -10z"/>
<path d="M4092 978 c-18 -13 -68 -75 -111 -138 -44 -63 -114 -166 -158 -228
-85 -124 -113 -173 -106 -184 2 -5 15 -8 29 -8 14 0 41 -8 62 -18 34 -18 63
-26 175 -52 97 -22 213 -40 264 -40 l54 0 -5 48 c-2 26 -5 62 -5 80 -1 18 -4
31 -9 28 -4 -2 -6 12 -4 32 3 38 -42 426 -54 456 -7 19 -54 46 -81 46 -10 0
-33 -10 -51 -22z"/>
</g>
</svg>
